<svg width="246" height="37" viewBox="0 0 246 37" fill="none" xmlns="http://www.w3.org/2000/svg">
<path d="M0.574219 15.2344C0.574219 14.5391 0.707031 13.8867 0.972656 13.2773C1.23828 12.668 1.59766 12.1367 2.05078 11.6836C2.51172 11.2227 3.04688 10.8594 3.65625 10.5938C4.26562 10.3281 4.91797 10.1953 5.61328 10.1953H13.3242V13.5586H5.61328C5.37891 13.5586 5.16016 13.6016 4.95703 13.6875C4.75391 13.7734 4.57422 13.8945 4.41797 14.0508C4.26953 14.1992 4.15234 14.375 4.06641 14.5781C3.98047 14.7812 3.9375 15 3.9375 15.2344C3.9375 15.4688 3.98047 15.6914 4.06641 15.9023C4.15234 16.1055 4.26953 16.2852 4.41797 16.4414C4.57422 16.5898 4.75391 16.707 4.95703 16.793C5.16016 16.8789 5.37891 16.9219 5.61328 16.9219H8.97656C9.67188 16.9219 10.3242 17.0547 10.9336 17.3203C11.5508 17.5781 12.0859 17.9375 12.5391 18.3984C13 18.8516 13.3594 19.3867 13.6172 20.0039C13.8828 20.6133 14.0156 21.2656 14.0156 21.9609C14.0156 22.6562 13.8828 23.3086 13.6172 23.918C13.3594 24.5273 13 25.0625 12.5391 25.5234C12.0859 25.9766 11.5508 26.3359 10.9336 26.6016C10.3242 26.8672 9.67188 27 8.97656 27H1.51172V23.6367H8.97656C9.21094 23.6367 9.42969 23.5938 9.63281 23.5078C9.83594 23.4219 10.0117 23.3047 10.1602 23.1562C10.3164 23 10.4375 22.8203 10.5234 22.6172C10.6094 22.4141 10.6523 22.1953 10.6523 21.9609C10.6523 21.7266 10.6094 21.5078 10.5234 21.3047C10.4375 21.1016 10.3164 20.9258 10.1602 20.7773C10.0117 20.6211 9.83594 20.5 9.63281 20.4141C9.42969 20.3281 9.21094 20.2852 8.97656 20.2852H5.61328C4.91797 20.2852 4.26562 20.1523 3.65625 19.8867C3.04688 19.6211 2.51172 19.2617 2.05078 18.8086C1.59766 18.3477 1.23828 17.8125 0.972656 17.2031C0.707031 16.5859 0.574219 15.9297 0.574219 15.2344ZM23.0508 27H19.6992V13.5586H14.6484V10.1953H28.0898V13.5586H23.0508V27ZM41.3906 27H29.8711V10.1953H41.3906V13.5586H33.2344V16.9219H38.7539V20.2852H33.2344V23.6367H41.3906V27ZM53.6367 20.2852V16.9219C53.6367 16.4609 53.5469 16.0273 53.3672 15.6211C53.1953 15.207 52.957 14.8477 52.6523 14.543C52.3477 14.2383 51.9883 14 51.5742 13.8281C51.168 13.6484 50.7344 13.5586 50.2734 13.5586C49.8125 13.5586 49.375 13.6484 48.9609 13.8281C48.5547 14 48.1992 14.2383 47.8945 14.543C47.5898 14.8477 47.3477 15.207 47.168 15.6211C46.9961 16.0273 46.9102 16.4609 46.9102 16.9219V20.2852H53.6367ZM57 27H53.6367V23.6367H46.9102V27H43.5586V16.9219C43.5586 15.9922 43.7344 15.1211 44.0859 14.3086C44.4375 13.4883 44.9141 12.7734 45.5156 12.1641C46.125 11.5547 46.8359 11.0742 47.6484 10.7227C48.4688 10.3711 49.3438 10.1953 50.2734 10.1953C51.2031 10.1953 52.0742 10.3711 52.8867 10.7227C53.707 11.0742 54.4219 11.5547 55.0312 12.1641C55.6406 12.7734 56.1211 13.4883 56.4727 14.3086C56.8242 15.1211 57 15.9922 57 16.9219V27ZM73.3828 18.5977C73.3828 19.3711 73.2812 20.1172 73.0781 20.8359C72.8828 21.5469 72.6016 22.2148 72.2344 22.8398C71.8672 23.457 71.4297 24.0234 70.9219 24.5391C70.4141 25.0469 69.8477 25.4844 69.2227 25.8516C68.5977 26.2188 67.9258 26.5039 67.207 26.707C66.4961 26.9023 65.7539 27 64.9805 27H59.918V10.1953H64.9805C65.7539 10.1953 66.4961 10.2969 67.207 10.5C67.9258 10.6953 68.5977 10.9766 69.2227 11.3438C69.8477 11.7109 70.4141 12.1523 70.9219 12.668C71.4297 13.1758 71.8672 13.7422 72.2344 14.3672C72.6016 14.9844 72.8828 15.6523 73.0781 16.3711C73.2812 17.082 73.3828 17.8242 73.3828 18.5977ZM70.0195 18.5977C70.0195 17.9023 69.8867 17.25 69.6211 16.6406C69.3633 16.0312 69.0039 15.5 68.543 15.0469C68.0898 14.5859 67.5547 14.2227 66.9375 13.957C66.3281 13.6914 65.6758 13.5586 64.9805 13.5586H63.3047V23.6367H64.9805C65.6758 23.6367 66.3281 23.5078 66.9375 23.25C67.5547 22.9844 68.0898 22.625 68.543 22.1719C69.0039 21.7109 69.3633 21.1758 69.6211 20.5664C69.8867 19.9492 70.0195 19.293 70.0195 18.5977ZM78.9844 27H75.6211V10.1953H87.3867V13.5586H78.9844V16.9219H84.0234V20.2852H78.9844V27ZM98.6367 20.2852V16.9219C98.6367 16.4609 98.5469 16.0273 98.3672 15.6211C98.1953 15.207 97.957 14.8477 97.6523 14.543C97.3477 14.2383 96.9883 14 96.5742 13.8281C96.168 13.6484 95.7344 13.5586 95.2734 13.5586C94.8125 13.5586 94.375 13.6484 93.9609 13.8281C93.5547 14 93.1992 14.2383 92.8945 14.543C92.5898 14.8477 92.3477 15.207 92.168 15.6211C91.9961 16.0273 91.9102 16.4609 91.9102 16.9219V20.2852H98.6367ZM102 27H98.6367V23.6367H91.9102V27H88.5586V16.9219C88.5586 15.9922 88.7344 15.1211 89.0859 14.3086C89.4375 13.4883 89.9141 12.7734 90.5156 12.1641C91.125 11.5547 91.8359 11.0742 92.6484 10.7227C93.4688 10.3711 94.3438 10.1953 95.2734 10.1953C96.2031 10.1953 97.0742 10.3711 97.8867 10.7227C98.707 11.0742 99.4219 11.5547 100.031 12.1641C100.641 12.7734 101.121 13.4883 101.473 14.3086C101.824 15.1211 102 15.9922 102 16.9219V27ZM103.934 15.2344C103.934 14.5391 104.066 13.8867 104.332 13.2773C104.598 12.668 104.957 12.1367 105.41 11.6836C105.871 11.2227 106.406 10.8594 107.016 10.5938C107.625 10.3281 108.277 10.1953 108.973 10.1953H116.684V13.5586H108.973C108.738 13.5586 108.52 13.6016 108.316 13.6875C108.113 13.7734 107.934 13.8945 107.777 14.0508C107.629 14.1992 107.512 14.375 107.426 14.5781C107.34 14.7812 107.297 15 107.297 15.2344C107.297 15.4688 107.34 15.6914 107.426 15.9023C107.512 16.1055 107.629 16.2852 107.777 16.4414C107.934 16.5898 108.113 16.707 108.316 16.793C108.52 16.8789 108.738 16.9219 108.973 16.9219H112.336C113.031 16.9219 113.684 17.0547 114.293 17.3203C114.91 17.5781 115.445 17.9375 115.898 18.3984C116.359 18.8516 116.719 19.3867 116.977 20.0039C117.242 20.6133 117.375 21.2656 117.375 21.9609C117.375 22.6562 117.242 23.3086 116.977 23.918C116.719 24.5273 116.359 25.0625 115.898 25.5234C115.445 25.9766 114.91 26.3359 114.293 26.6016C113.684 26.8672 113.031 27 112.336 27H104.871V23.6367H112.336C112.57 23.6367 112.789 23.5938 112.992 23.5078C113.195 23.4219 113.371 23.3047 113.52 23.1562C113.676 23 113.797 22.8203 113.883 22.6172C113.969 22.4141 114.012 22.1953 114.012 21.9609C114.012 21.7266 113.969 21.5078 113.883 21.3047C113.797 21.1016 113.676 20.9258 113.52 20.7773C113.371 20.6211 113.195 20.5 112.992 20.4141C112.789 20.3281 112.57 20.2852 112.336 20.2852H108.973C108.277 20.2852 107.625 20.1523 107.016 19.8867C106.406 19.6211 105.871 19.2617 105.41 18.8086C104.957 18.3477 104.598 17.8125 104.332 17.2031C104.066 16.5859 103.934 15.9297 103.934 15.2344ZM126.41 27H123.059V13.5586H118.008V10.1953H131.449V13.5586H126.41V27Z" fill="white"/>
<path d="M143.32 27H139.957V10.1953H143.32V27ZM159.891 27H156.293L149.812 15.9375V27H146.449V10.1953H150.047L156.527 21.2695V10.1953H159.891V27ZM176.438 25.2773C175.656 25.9492 174.781 26.4648 173.812 26.8242C172.844 27.1836 171.84 27.3633 170.801 27.3633C170.004 27.3633 169.234 27.2578 168.492 27.0469C167.758 26.8438 167.066 26.5547 166.418 26.1797C165.777 25.7969 165.191 25.3398 164.66 24.8086C164.129 24.2773 163.672 23.6914 163.289 23.0508C162.914 22.4023 162.621 21.7109 162.41 20.9766C162.207 20.2344 162.105 19.4648 162.105 18.668C162.105 17.8711 162.207 17.1016 162.41 16.3594C162.621 15.6172 162.914 14.9258 163.289 14.2852C163.672 13.6367 164.129 13.0469 164.66 12.5156C165.191 11.9844 165.777 11.5312 166.418 11.1562C167.066 10.7734 167.758 10.4805 168.492 10.2773C169.234 10.0664 170.004 9.96094 170.801 9.96094C171.84 9.96094 172.844 10.1406 173.812 10.5C174.781 10.8516 175.656 11.3672 176.438 12.0469L174.656 14.9766C174.164 14.4453 173.582 14.0391 172.91 13.7578C172.238 13.4688 171.535 13.3242 170.801 13.3242C170.059 13.3242 169.363 13.4648 168.715 13.7461C168.066 14.0273 167.5 14.4102 167.016 14.8945C166.531 15.3711 166.148 15.9375 165.867 16.5938C165.586 17.2422 165.445 17.9336 165.445 18.668C165.445 19.4023 165.586 20.0938 165.867 20.7422C166.148 21.3828 166.531 21.9453 167.016 22.4297C167.5 22.9141 168.066 23.2969 168.715 23.5781C169.363 23.8594 170.059 24 170.801 24C171.535 24 172.238 23.8594 172.91 23.5781C173.582 23.2891 174.164 22.8789 174.656 22.3477L176.438 25.2773Z" fill="#FFD336"/>
<path d="M200.96 23.3743C201.542 23.3743 202.059 23.8905 202.059 24.4713V24.5358C202.059 25.1166 201.542 25.6328 200.96 25.6328H197.341H195.983C195.402 25.6328 194.885 26.1491 194.885 26.7298V26.7944C194.885 27.3751 195.402 27.8914 195.983 27.8914H198.181H213.24C221.06 19.696 223.581 9.43573 218.734 4.01519C218.54 3.75707 218.281 3.56348 218.023 3.30536H213.757H209.621H199.861C199.28 3.30536 198.763 3.8216 198.763 4.40237V4.4669C198.763 5.04768 199.28 5.56392 199.861 5.56392H207.876H210.913C211.495 5.56392 212.012 6.08016 212.012 6.66093V6.72546C212.012 7.30623 211.495 7.82248 210.913 7.82248H207.423H201.93C201.348 7.82248 200.831 8.33872 200.831 8.91949V8.98402C200.831 9.56479 201.348 10.081 201.93 10.081H206.971H215.244C215.825 10.081 216.342 10.5973 216.342 11.178V11.2426C216.342 11.8233 215.825 12.3396 215.244 12.3396H206.454H192.041C191.459 12.3396 190.942 12.8558 190.942 13.4366V13.5011C190.942 14.0819 191.459 14.5981 192.041 14.5981H200.12H201.542C202.123 14.5981 202.64 15.1144 202.64 15.6952V15.7597C202.64 16.3405 202.123 16.8567 201.542 16.8567H200.12H196.953C196.371 16.8567 195.854 17.3729 195.854 17.9537V18.0183C195.854 18.599 196.371 19.1153 196.953 19.1153H205.032H206.971C207.552 19.1153 208.07 19.6315 208.07 20.2123V20.0187C208.07 20.5995 207.552 21.1157 206.971 21.1157H204.515H190.619C190.037 21.1157 189.52 21.6319 189.52 22.2127V22.2772C189.52 22.858 190.037 23.3743 190.619 23.3743H190.748H197.858H200.96ZM214.209 7.75794C213.563 7.75794 213.111 7.2417 213.111 6.66093C213.111 6.01563 213.628 5.56392 214.209 5.56392C214.856 5.56392 215.308 6.08016 215.308 6.66093C215.308 7.2417 214.856 7.75794 214.209 7.75794ZM211.818 20.0187C211.818 20.664 211.301 21.1157 210.719 21.1157C210.073 21.1157 209.621 20.5995 209.621 20.0187C209.621 19.3734 210.138 18.9217 210.719 18.9217C211.366 18.8571 211.818 19.3734 211.818 20.0187ZM205.355 16.6631C204.773 16.6631 204.256 16.1469 204.256 15.5661V15.5016C204.256 14.9208 204.773 14.4046 205.355 14.4046H208.91C209.491 14.4046 210.008 14.9208 210.008 15.5016V15.5661C210.008 16.1469 209.491 16.6631 208.91 16.6631H205.355Z" fill="url(#paint0_linear)"/>
<path d="M229.656 21.8255H225.649L229.333 4.53145C229.462 3.82162 229.01 3.24084 228.299 3.24084H221.125C221.384 3.43444 221.577 3.69256 221.836 3.95068C226.683 9.37122 224.163 19.6315 216.342 27.8269H228.428C229.139 27.8269 229.85 27.2461 229.979 26.5363L230.69 23.1162C230.82 22.4063 230.367 21.8255 229.656 21.8255Z" fill="url(#paint1_linear)"/>
<path d="M245.168 23.3743H244.909L245.62 20.0832C245.749 19.3734 245.62 18.2764 245.232 17.6311L240.579 9.30669C240.256 8.66138 239.351 8.14514 238.64 8.14514H229.85C229.139 8.14514 228.428 8.72591 228.299 9.43575L224.68 26.4717C224.55 27.1816 225.003 27.7623 225.714 27.7623H242.712C242.776 27.7623 242.776 27.7623 242.841 27.7623C242.906 27.7623 242.906 27.7623 242.97 27.7623H244.328C244.78 27.7623 245.297 27.3752 245.362 26.9234L245.943 24.2132C246.008 23.7615 245.685 23.3743 245.168 23.3743Z" fill="url(#paint2_linear)"/>
<path d="M242.453 17.3729C242.389 17.6956 241.936 18.0182 241.419 18.0182H230.561C230.109 18.0182 229.786 17.6311 229.85 17.1794L231.207 10.7909C231.337 10.3391 231.789 9.95197 232.242 9.95197H237.864C238.317 9.95197 238.899 10.2746 239.157 10.7263L242.13 16.0178C242.389 16.405 242.518 17.0503 242.453 17.3729Z" fill="white"/>
<path d="M238.575 27.8268C238.058 30.2144 235.732 32.1503 233.276 32.1503C230.884 32.1503 229.333 30.2144 229.85 27.8268C230.367 25.4392 232.694 23.5033 235.15 23.5033C237.541 23.5033 239.028 25.4392 238.575 27.8268Z" fill="url(#paint3_linear)"/>
<path d="M235.99 27.8269C235.796 28.7948 234.827 29.6337 233.793 29.6337C232.823 29.6337 232.177 28.7948 232.371 27.8269C232.565 26.8589 233.534 26.02 234.568 26.02C235.602 26.02 236.184 26.7944 235.99 27.8269Z" fill="white"/>
<path d="M211.56 27.8268C211.043 30.2144 208.716 32.1503 206.26 32.1503C203.868 32.1503 202.317 30.2144 202.834 27.8268C203.351 25.4392 205.678 23.5033 208.134 23.5033C210.525 23.5033 212.077 25.4392 211.56 27.8268Z" fill="url(#paint4_linear)"/>
<path d="M209.039 27.8269C208.845 28.7948 207.876 29.6337 206.842 29.6337C205.872 29.6337 205.226 28.7948 205.42 27.8269C205.614 26.8589 206.583 26.02 207.617 26.02C208.651 26.02 209.233 26.7944 209.039 27.8269Z" fill="white"/>
<path d="M216.472 29.0529C210.202 34.6671 202.77 37.5064 196.953 36.9256C202.123 36.4739 208.134 33.6991 213.369 29.0529C222.741 20.664 226.037 9.1131 220.802 3.30538C219.121 1.43401 216.665 0.336993 213.886 0.078872C217.958 -0.308309 221.577 0.724174 223.84 3.30538C229.204 9.1131 225.843 20.5995 216.472 29.0529Z" fill="url(#paint5_linear)"/>
<defs>
<linearGradient id="paint0_linear" x1="230.561" y1="15.5418" x2="188.334" y2="15.5418" gradientUnits="userSpaceOnUse">
<stop offset="0.1241" stop-color="#FE0600"/>
<stop offset="0.8621" stop-color="#FFB904"/>
</linearGradient>
<linearGradient id="paint1_linear" x1="216.593" y1="17.9954" x2="251.828" y2="7.51859" gradientUnits="userSpaceOnUse">
<stop stop-color="#9700F2"/>
<stop offset="1" stop-color="#3F7AFF"/>
</linearGradient>
<linearGradient id="paint2_linear" x1="218.251" y1="23.5712" x2="253.486" y2="13.0944" gradientUnits="userSpaceOnUse">
<stop stop-color="#9700F2"/>
<stop offset="1" stop-color="#3F7AFF"/>
</linearGradient>
<linearGradient id="paint3_linear" x1="220.701" y1="31.8125" x2="255.936" y2="21.3356" gradientUnits="userSpaceOnUse">
<stop stop-color="#9700F2"/>
<stop offset="1" stop-color="#3F7AFF"/>
</linearGradient>
<linearGradient id="paint4_linear" x1="230.561" y1="27.8125" x2="188.334" y2="27.8125" gradientUnits="userSpaceOnUse">
<stop offset="0.1241" stop-color="#FE0600"/>
<stop offset="0.8621" stop-color="#FFB904"/>
</linearGradient>
<linearGradient id="paint5_linear" x1="216.015" y1="16.0508" x2="251.25" y2="5.57412" gradientUnits="userSpaceOnUse">
<stop stop-color="#9700F2"/>
<stop offset="1" stop-color="#3F7AFF"/>
</linearGradient>
</defs>
</svg>
