<svg width="246" height="37" viewBox="0 0 246 37" fill="none" xmlns="http://www.w3.org/2000/svg">
<path d="M0.574219 15.2344C0.574219 14.5391 0.707031 13.8867 0.972656 13.2773C1.23828 12.668 1.59766 12.1367 2.05078 11.6836C2.51172 11.2227 3.04688 10.8594 3.65625 10.5938C4.26562 10.3281 4.91797 10.1953 5.61328 10.1953H13.3242V13.5586H5.61328C5.37891 13.5586 5.16016 13.6016 4.95703 13.6875C4.75391 13.7734 4.57422 13.8945 4.41797 14.0508C4.26953 14.1992 4.15234 14.375 4.06641 14.5781C3.98047 14.7812 3.9375 15 3.9375 15.2344C3.9375 15.4688 3.98047 15.6914 4.06641 15.9023C4.15234 16.1055 4.26953 16.2852 4.41797 16.4414C4.57422 16.5898 4.75391 16.707 4.95703 16.793C5.16016 16.8789 5.37891 16.9219 5.61328 16.9219H8.97656C9.67188 16.9219 10.3242 17.0547 10.9336 17.3203C11.5508 17.5781 12.0859 17.9375 12.5391 18.3984C13 18.8516 13.3594 19.3867 13.6172 20.0039C13.8828 20.6133 14.0156 21.2656 14.0156 21.9609C14.0156 22.6562 13.8828 23.3086 13.6172 23.918C13.3594 24.5273 13 25.0625 12.5391 25.5234C12.0859 25.9766 11.5508 26.3359 10.9336 26.6016C10.3242 26.8672 9.67188 27 8.97656 27H1.51172V23.6367H8.97656C9.21094 23.6367 9.42969 23.5938 9.63281 23.5078C9.83594 23.4219 10.0117 23.3047 10.1602 23.1562C10.3164 23 10.4375 22.8203 10.5234 22.6172C10.6094 22.4141 10.6523 22.1953 10.6523 21.9609C10.6523 21.7266 10.6094 21.5078 10.5234 21.3047C10.4375 21.1016 10.3164 20.9258 10.1602 20.7773C10.0117 20.6211 9.83594 20.5 9.63281 20.4141C9.42969 20.3281 9.21094 20.2852 8.97656 20.2852H5.61328C4.91797 20.2852 4.26562 20.1523 3.65625 19.8867C3.04688 19.6211 2.51172 19.2617 2.05078 18.8086C1.59766 18.3477 1.23828 17.8125 0.972656 17.2031C0.707031 16.5859 0.574219 15.9297 0.574219 15.2344ZM23.0508 27H19.6992V13.5586H14.6484V10.1953H28.0898V13.5586H23.0508V27ZM41.3906 27H29.8711V10.1953H41.3906V13.5586H33.2344V16.9219H38.7539V20.2852H33.2344V23.6367H41.3906V27ZM57.2109 18.5977C57.2109 19.3711 57.1094 20.1172 56.9062 20.8359C56.7109 21.5469 56.4297 22.2148 56.0625 22.8398C55.6953 23.457 55.2578 24.0234 54.75 24.5391C54.2422 25.0469 53.6758 25.4844 53.0508 25.8516C52.4258 26.2188 51.7539 26.5039 51.0352 26.707C50.3242 26.9023 49.582 27 48.8086 27H43.7461V10.1953H48.8086C49.582 10.1953 50.3242 10.2969 51.0352 10.5C51.7539 10.6953 52.4258 10.9766 53.0508 11.3438C53.6758 11.7109 54.2422 12.1523 54.75 12.668C55.2578 13.1758 55.6953 13.7422 56.0625 14.3672C56.4297 14.9844 56.7109 15.6523 56.9062 16.3711C57.1094 17.082 57.2109 17.8242 57.2109 18.5977ZM53.8477 18.5977C53.8477 17.9023 53.7148 17.25 53.4492 16.6406C53.1914 16.0312 52.832 15.5 52.3711 15.0469C51.918 14.5859 51.3828 14.2227 50.7656 13.957C50.1562 13.6914 49.5039 13.5586 48.8086 13.5586H47.1328V23.6367H48.8086C49.5039 23.6367 50.1562 23.5078 50.7656 23.25C51.3828 22.9844 51.918 22.625 52.3711 22.1719C52.832 21.7109 53.1914 21.1758 53.4492 20.5664C53.7148 19.9492 53.8477 19.293 53.8477 18.5977ZM62.8125 27H59.4492V10.1953H71.2148V13.5586H62.8125V16.9219H67.8516V20.2852H62.8125V27ZM82.4648 20.2852V16.9219C82.4648 16.4609 82.375 16.0273 82.1953 15.6211C82.0234 15.207 81.7852 14.8477 81.4805 14.543C81.1758 14.2383 80.8164 14 80.4023 13.8281C79.9961 13.6484 79.5625 13.5586 79.1016 13.5586C78.6406 13.5586 78.2031 13.6484 77.7891 13.8281C77.3828 14 77.0273 14.2383 76.7227 14.543C76.418 14.8477 76.1758 15.207 75.9961 15.6211C75.8242 16.0273 75.7383 16.4609 75.7383 16.9219V20.2852H82.4648ZM85.8281 27H82.4648V23.6367H75.7383V27H72.3867V16.9219C72.3867 15.9922 72.5625 15.1211 72.9141 14.3086C73.2656 13.4883 73.7422 12.7734 74.3438 12.1641C74.9531 11.5547 75.6641 11.0742 76.4766 10.7227C77.2969 10.3711 78.1719 10.1953 79.1016 10.1953C80.0312 10.1953 80.9023 10.3711 81.7148 10.7227C82.5352 11.0742 83.25 11.5547 83.8594 12.1641C84.4688 12.7734 84.9492 13.4883 85.3008 14.3086C85.6523 15.1211 85.8281 15.9922 85.8281 16.9219V27ZM87.7617 15.2344C87.7617 14.5391 87.8945 13.8867 88.1602 13.2773C88.4258 12.668 88.7852 12.1367 89.2383 11.6836C89.6992 11.2227 90.2344 10.8594 90.8438 10.5938C91.4531 10.3281 92.1055 10.1953 92.8008 10.1953H100.512V13.5586H92.8008C92.5664 13.5586 92.3477 13.6016 92.1445 13.6875C91.9414 13.7734 91.7617 13.8945 91.6055 14.0508C91.457 14.1992 91.3398 14.375 91.2539 14.5781C91.168 14.7812 91.125 15 91.125 15.2344C91.125 15.4688 91.168 15.6914 91.2539 15.9023C91.3398 16.1055 91.457 16.2852 91.6055 16.4414C91.7617 16.5898 91.9414 16.707 92.1445 16.793C92.3477 16.8789 92.5664 16.9219 92.8008 16.9219H96.1641C96.8594 16.9219 97.5117 17.0547 98.1211 17.3203C98.7383 17.5781 99.2734 17.9375 99.7266 18.3984C100.188 18.8516 100.547 19.3867 100.805 20.0039C101.07 20.6133 101.203 21.2656 101.203 21.9609C101.203 22.6562 101.07 23.3086 100.805 23.918C100.547 24.5273 100.188 25.0625 99.7266 25.5234C99.2734 25.9766 98.7383 26.3359 98.1211 26.6016C97.5117 26.8672 96.8594 27 96.1641 27H88.6992V23.6367H96.1641C96.3984 23.6367 96.6172 23.5938 96.8203 23.5078C97.0234 23.4219 97.1992 23.3047 97.3477 23.1562C97.5039 23 97.625 22.8203 97.7109 22.6172C97.7969 22.4141 97.8398 22.1953 97.8398 21.9609C97.8398 21.7266 97.7969 21.5078 97.7109 21.3047C97.625 21.1016 97.5039 20.9258 97.3477 20.7773C97.1992 20.6211 97.0234 20.5 96.8203 20.4141C96.6172 20.3281 96.3984 20.2852 96.1641 20.2852H92.8008C92.1055 20.2852 91.4531 20.1523 90.8438 19.8867C90.2344 19.6211 89.6992 19.2617 89.2383 18.8086C88.7852 18.3477 88.4258 17.8125 88.1602 17.2031C87.8945 16.5859 87.7617 15.9297 87.7617 15.2344ZM110.238 27H106.887V13.5586H101.836V10.1953H115.277V13.5586H110.238V27ZM115.957 15.2344C115.957 14.5391 116.09 13.8867 116.355 13.2773C116.621 12.668 116.98 12.1367 117.434 11.6836C117.895 11.2227 118.43 10.8594 119.039 10.5938C119.648 10.3281 120.301 10.1953 120.996 10.1953H128.707V13.5586H120.996C120.762 13.5586 120.543 13.6016 120.34 13.6875C120.137 13.7734 119.957 13.8945 119.801 14.0508C119.652 14.1992 119.535 14.375 119.449 14.5781C119.363 14.7812 119.32 15 119.32 15.2344C119.32 15.4688 119.363 15.6914 119.449 15.9023C119.535 16.1055 119.652 16.2852 119.801 16.4414C119.957 16.5898 120.137 16.707 120.34 16.793C120.543 16.8789 120.762 16.9219 120.996 16.9219H124.359C125.055 16.9219 125.707 17.0547 126.316 17.3203C126.934 17.5781 127.469 17.9375 127.922 18.3984C128.383 18.8516 128.742 19.3867 129 20.0039C129.266 20.6133 129.398 21.2656 129.398 21.9609C129.398 22.6562 129.266 23.3086 129 23.918C128.742 24.5273 128.383 25.0625 127.922 25.5234C127.469 25.9766 126.934 26.3359 126.316 26.6016C125.707 26.8672 125.055 27 124.359 27H116.895V23.6367H124.359C124.594 23.6367 124.812 23.5938 125.016 23.5078C125.219 23.4219 125.395 23.3047 125.543 23.1562C125.699 23 125.82 22.8203 125.906 22.6172C125.992 22.4141 126.035 22.1953 126.035 21.9609C126.035 21.7266 125.992 21.5078 125.906 21.3047C125.82 21.1016 125.699 20.9258 125.543 20.7773C125.395 20.6211 125.219 20.5 125.016 20.4141C124.812 20.3281 124.594 20.2852 124.359 20.2852H120.996C120.301 20.2852 119.648 20.1523 119.039 19.8867C118.43 19.6211 117.895 19.2617 117.434 18.8086C116.98 18.3477 116.621 17.8125 116.355 17.2031C116.09 16.5859 115.957 15.9297 115.957 15.2344Z" fill="white"/>
<path d="M141.703 27H138.34V10.1953H141.703V27ZM158.273 27H154.676L148.195 15.9375V27H144.832V10.1953H148.43L154.91 21.2695V10.1953H158.273V27ZM174.82 25.2773C174.039 25.9492 173.164 26.4648 172.195 26.8242C171.227 27.1836 170.223 27.3633 169.184 27.3633C168.387 27.3633 167.617 27.2578 166.875 27.0469C166.141 26.8438 165.449 26.5547 164.801 26.1797C164.16 25.7969 163.574 25.3398 163.043 24.8086C162.512 24.2773 162.055 23.6914 161.672 23.0508C161.297 22.4023 161.004 21.7109 160.793 20.9766C160.59 20.2344 160.488 19.4648 160.488 18.668C160.488 17.8711 160.59 17.1016 160.793 16.3594C161.004 15.6172 161.297 14.9258 161.672 14.2852C162.055 13.6367 162.512 13.0469 163.043 12.5156C163.574 11.9844 164.16 11.5312 164.801 11.1562C165.449 10.7734 166.141 10.4805 166.875 10.2773C167.617 10.0664 168.387 9.96094 169.184 9.96094C170.223 9.96094 171.227 10.1406 172.195 10.5C173.164 10.8516 174.039 11.3672 174.82 12.0469L173.039 14.9766C172.547 14.4453 171.965 14.0391 171.293 13.7578C170.621 13.4688 169.918 13.3242 169.184 13.3242C168.441 13.3242 167.746 13.4648 167.098 13.7461C166.449 14.0273 165.883 14.4102 165.398 14.8945C164.914 15.3711 164.531 15.9375 164.25 16.5938C163.969 17.2422 163.828 17.9336 163.828 18.668C163.828 19.4023 163.969 20.0938 164.25 20.7422C164.531 21.3828 164.914 21.9453 165.398 22.4297C165.883 22.9141 166.449 23.2969 167.098 23.5781C167.746 23.8594 168.441 24 169.184 24C169.918 24 170.621 23.8594 171.293 23.5781C171.965 23.2891 172.547 22.8789 173.039 22.3477L174.82 25.2773Z" fill="#FFD336"/>
<path d="M200.96 23.3743C201.542 23.3743 202.059 23.8905 202.059 24.4713V24.5358C202.059 25.1166 201.542 25.6328 200.96 25.6328H197.341H195.983C195.402 25.6328 194.885 26.1491 194.885 26.7298V26.7944C194.885 27.3751 195.402 27.8914 195.983 27.8914H198.181H213.24C221.06 19.696 223.581 9.43573 218.734 4.01519C218.54 3.75707 218.281 3.56348 218.023 3.30536H213.757H209.621H199.861C199.28 3.30536 198.763 3.8216 198.763 4.40237V4.4669C198.763 5.04768 199.28 5.56392 199.861 5.56392H207.876H210.913C211.495 5.56392 212.012 6.08016 212.012 6.66093V6.72546C212.012 7.30623 211.495 7.82248 210.913 7.82248H207.423H201.93C201.348 7.82248 200.831 8.33872 200.831 8.91949V8.98402C200.831 9.56479 201.348 10.081 201.93 10.081H206.971H215.244C215.825 10.081 216.342 10.5973 216.342 11.178V11.2426C216.342 11.8233 215.825 12.3396 215.244 12.3396H206.454H192.041C191.459 12.3396 190.942 12.8558 190.942 13.4366V13.5011C190.942 14.0819 191.459 14.5981 192.041 14.5981H200.12H201.542C202.123 14.5981 202.64 15.1144 202.64 15.6952V15.7597C202.64 16.3405 202.123 16.8567 201.542 16.8567H200.12H196.953C196.371 16.8567 195.854 17.3729 195.854 17.9537V18.0183C195.854 18.599 196.371 19.1153 196.953 19.1153H205.032H206.971C207.552 19.1153 208.07 19.6315 208.07 20.2123V20.0187C208.07 20.5995 207.552 21.1157 206.971 21.1157H204.515H190.619C190.037 21.1157 189.52 21.6319 189.52 22.2127V22.2772C189.52 22.858 190.037 23.3743 190.619 23.3743H190.748H197.858H200.96ZM214.209 7.75794C213.563 7.75794 213.111 7.2417 213.111 6.66093C213.111 6.01563 213.628 5.56392 214.209 5.56392C214.856 5.56392 215.308 6.08016 215.308 6.66093C215.308 7.2417 214.856 7.75794 214.209 7.75794ZM211.818 20.0187C211.818 20.664 211.301 21.1157 210.719 21.1157C210.073 21.1157 209.621 20.5995 209.621 20.0187C209.621 19.3734 210.138 18.9217 210.719 18.9217C211.366 18.8571 211.818 19.3734 211.818 20.0187ZM205.355 16.6631C204.773 16.6631 204.256 16.1469 204.256 15.5661V15.5016C204.256 14.9208 204.773 14.4046 205.355 14.4046H208.91C209.491 14.4046 210.008 14.9208 210.008 15.5016V15.5661C210.008 16.1469 209.491 16.6631 208.91 16.6631H205.355Z" fill="url(#paint0_linear)"/>
<path d="M229.656 21.8255H225.649L229.333 4.53145C229.462 3.82162 229.01 3.24084 228.299 3.24084H221.125C221.384 3.43444 221.577 3.69256 221.836 3.95068C226.683 9.37122 224.163 19.6315 216.342 27.8269H228.428C229.139 27.8269 229.85 27.2461 229.979 26.5363L230.69 23.1162C230.82 22.4063 230.367 21.8255 229.656 21.8255Z" fill="url(#paint1_linear)"/>
<path d="M245.168 23.3743H244.909L245.62 20.0832C245.749 19.3734 245.62 18.2764 245.232 17.6311L240.579 9.30669C240.256 8.66138 239.351 8.14514 238.64 8.14514H229.85C229.139 8.14514 228.428 8.72591 228.299 9.43575L224.68 26.4717C224.55 27.1816 225.003 27.7623 225.714 27.7623H242.712C242.776 27.7623 242.776 27.7623 242.841 27.7623C242.906 27.7623 242.906 27.7623 242.97 27.7623H244.328C244.78 27.7623 245.297 27.3752 245.362 26.9234L245.943 24.2132C246.008 23.7615 245.685 23.3743 245.168 23.3743Z" fill="url(#paint2_linear)"/>
<path d="M242.453 17.3729C242.389 17.6956 241.936 18.0182 241.419 18.0182H230.561C230.109 18.0182 229.786 17.6311 229.85 17.1794L231.207 10.7909C231.337 10.3391 231.789 9.95197 232.242 9.95197H237.864C238.317 9.95197 238.899 10.2746 239.157 10.7263L242.13 16.0178C242.389 16.405 242.518 17.0503 242.453 17.3729Z" fill="white"/>
<path d="M238.575 27.8268C238.058 30.2144 235.732 32.1503 233.276 32.1503C230.884 32.1503 229.333 30.2144 229.85 27.8268C230.367 25.4392 232.694 23.5033 235.15 23.5033C237.541 23.5033 239.028 25.4392 238.575 27.8268Z" fill="url(#paint3_linear)"/>
<path d="M235.99 27.8269C235.796 28.7948 234.827 29.6337 233.793 29.6337C232.823 29.6337 232.177 28.7948 232.371 27.8269C232.565 26.8589 233.534 26.02 234.568 26.02C235.602 26.02 236.184 26.7944 235.99 27.8269Z" fill="white"/>
<path d="M211.56 27.8268C211.043 30.2144 208.716 32.1503 206.26 32.1503C203.868 32.1503 202.317 30.2144 202.834 27.8268C203.351 25.4392 205.678 23.5033 208.134 23.5033C210.525 23.5033 212.077 25.4392 211.56 27.8268Z" fill="url(#paint4_linear)"/>
<path d="M209.039 27.8269C208.845 28.7948 207.876 29.6337 206.842 29.6337C205.872 29.6337 205.226 28.7948 205.42 27.8269C205.614 26.8589 206.583 26.02 207.617 26.02C208.651 26.02 209.233 26.7944 209.039 27.8269Z" fill="white"/>
<path d="M216.472 29.0529C210.202 34.6671 202.77 37.5064 196.953 36.9256C202.123 36.4739 208.134 33.6991 213.369 29.0529C222.741 20.664 226.037 9.1131 220.802 3.30538C219.121 1.43401 216.665 0.336993 213.886 0.078872C217.958 -0.308309 221.577 0.724174 223.84 3.30538C229.204 9.1131 225.843 20.5995 216.472 29.0529Z" fill="url(#paint5_linear)"/>
<defs>
<linearGradient id="paint0_linear" x1="230.561" y1="15.5418" x2="188.334" y2="15.5418" gradientUnits="userSpaceOnUse">
<stop offset="0.1241" stop-color="#FE0600"/>
<stop offset="0.8621" stop-color="#FFB904"/>
</linearGradient>
<linearGradient id="paint1_linear" x1="216.593" y1="17.9954" x2="251.828" y2="7.51859" gradientUnits="userSpaceOnUse">
<stop stop-color="#9700F2"/>
<stop offset="1" stop-color="#3F7AFF"/>
</linearGradient>
<linearGradient id="paint2_linear" x1="218.251" y1="23.5712" x2="253.486" y2="13.0944" gradientUnits="userSpaceOnUse">
<stop stop-color="#9700F2"/>
<stop offset="1" stop-color="#3F7AFF"/>
</linearGradient>
<linearGradient id="paint3_linear" x1="220.701" y1="31.8125" x2="255.936" y2="21.3356" gradientUnits="userSpaceOnUse">
<stop stop-color="#9700F2"/>
<stop offset="1" stop-color="#3F7AFF"/>
</linearGradient>
<linearGradient id="paint4_linear" x1="230.561" y1="27.8125" x2="188.334" y2="27.8125" gradientUnits="userSpaceOnUse">
<stop offset="0.1241" stop-color="#FE0600"/>
<stop offset="0.8621" stop-color="#FFB904"/>
</linearGradient>
<linearGradient id="paint5_linear" x1="216.015" y1="16.0508" x2="251.25" y2="5.57412" gradientUnits="userSpaceOnUse">
<stop stop-color="#9700F2"/>
<stop offset="1" stop-color="#3F7AFF"/>
</linearGradient>
</defs>
</svg>
