<svg width="247" height="37" viewBox="0 0 247 37" fill="none" xmlns="http://www.w3.org/2000/svg">
<path d="M0.669922 15.2734C0.669922 14.4622 0.82487 13.7012 1.13477 12.9902C1.44466 12.2793 1.86393 11.6595 2.39258 11.1309C2.93034 10.5931 3.55469 10.1693 4.26562 9.85938C4.97656 9.54948 5.73763 9.39453 6.54883 9.39453H15.5449V13.3184H6.54883C6.27539 13.3184 6.02018 13.3685 5.7832 13.4688C5.54622 13.569 5.33659 13.7103 5.1543 13.8926C4.98112 14.0658 4.8444 14.2708 4.74414 14.5078C4.64388 14.7448 4.59375 15 4.59375 15.2734C4.59375 15.5469 4.64388 15.8066 4.74414 16.0527C4.8444 16.2897 4.98112 16.4993 5.1543 16.6816C5.33659 16.8548 5.54622 16.9915 5.7832 17.0918C6.02018 17.1921 6.27539 17.2422 6.54883 17.2422H10.4727C11.2839 17.2422 12.0449 17.3971 12.7559 17.707C13.4759 18.0078 14.1003 18.4271 14.6289 18.9648C15.1667 19.4935 15.5859 20.1178 15.8867 20.8379C16.1966 21.5488 16.3516 22.3099 16.3516 23.1211C16.3516 23.9323 16.1966 24.6934 15.8867 25.4043C15.5859 26.1152 15.1667 26.7396 14.6289 27.2773C14.1003 27.806 13.4759 28.2253 12.7559 28.5352C12.0449 28.8451 11.2839 29 10.4727 29H1.76367V25.0762H10.4727C10.7461 25.0762 11.0013 25.026 11.2383 24.9258C11.4753 24.8255 11.6803 24.6888 11.8535 24.5156C12.0358 24.3333 12.1771 24.1237 12.2773 23.8867C12.3776 23.6497 12.4277 23.3945 12.4277 23.1211C12.4277 22.8477 12.3776 22.5924 12.2773 22.3555C12.1771 22.1185 12.0358 21.9134 11.8535 21.7402C11.6803 21.5579 11.4753 21.4167 11.2383 21.3164C11.0013 21.2161 10.7461 21.166 10.4727 21.166H6.54883C5.73763 21.166 4.97656 21.0111 4.26562 20.7012C3.55469 20.3913 2.93034 19.972 2.39258 19.4434C1.86393 18.9056 1.44466 18.2812 1.13477 17.5703C0.82487 16.8503 0.669922 16.0846 0.669922 15.2734ZM26.8926 29H22.9824V13.3184H17.0898V9.39453H32.7715V13.3184H26.8926V29ZM38.7734 13.3184V21.166H42.6973C43.235 21.166 43.7409 21.0658 44.2148 20.8652C44.6888 20.6556 45.1035 20.373 45.459 20.0176C45.8145 19.6621 46.0924 19.2474 46.293 18.7734C46.5026 18.2904 46.6074 17.7799 46.6074 17.2422C46.6074 16.7044 46.5026 16.1986 46.293 15.7246C46.0924 15.2415 45.8145 14.8223 45.459 14.4668C45.1035 14.1113 44.6888 13.8333 44.2148 13.6328C43.7409 13.4232 43.235 13.3184 42.6973 13.3184H38.7734ZM38.7734 29H34.8496V9.39453H42.6973C43.4173 9.39453 44.11 9.49023 44.7754 9.68164C45.4408 9.86393 46.0605 10.1283 46.6348 10.4746C47.2181 10.8118 47.7467 11.222 48.2207 11.7051C48.7038 12.179 49.1139 12.7077 49.4512 13.291C49.7975 13.8743 50.0618 14.4987 50.2441 15.1641C50.4355 15.8294 50.5312 16.5221 50.5312 17.2422C50.5312 18.3177 50.3262 19.334 49.916 20.291C49.5059 21.2389 48.9453 22.0684 48.2344 22.7793C47.5234 23.4902 46.6895 24.0508 45.7324 24.4609C44.7845 24.8711 43.7728 25.0762 42.6973 25.0762H38.7734V29Z" fill="white"/>
<path d="M74.416 29H60.6895V9.39453H64.6133V25.0762H74.416V29ZM94.9922 19.2793C94.9922 20.209 94.8691 21.1068 94.623 21.9727C94.3861 22.8294 94.0488 23.6361 93.6113 24.3926C93.1738 25.14 92.6452 25.8236 92.0254 26.4434C91.4056 27.0632 90.722 27.5964 89.9746 28.043C89.2272 28.4805 88.4206 28.8177 87.5547 29.0547C86.6888 29.3008 85.791 29.4238 84.8613 29.4238C83.9316 29.4238 83.0339 29.3008 82.168 29.0547C81.3112 28.8177 80.5046 28.4805 79.748 28.043C79.0007 27.5964 78.3171 27.0632 77.6973 26.4434C77.0775 25.8236 76.5443 25.14 76.0977 24.3926C75.6602 23.6361 75.3184 22.8294 75.0723 21.9727C74.8353 21.1068 74.7168 20.209 74.7168 19.2793C74.7168 18.3496 74.8353 17.4518 75.0723 16.5859C75.3184 15.7201 75.6602 14.9134 76.0977 14.166C76.5443 13.4186 77.0775 12.735 77.6973 12.1152C78.3171 11.4954 79.0007 10.9668 79.748 10.5293C80.5046 10.0918 81.3112 9.75456 82.168 9.51758C83.0339 9.27148 83.9316 9.14844 84.8613 9.14844C85.791 9.14844 86.6888 9.27148 87.5547 9.51758C88.4206 9.75456 89.2272 10.0918 89.9746 10.5293C90.722 10.9668 91.4056 11.4954 92.0254 12.1152C92.6452 12.735 93.1738 13.4186 93.6113 14.166C94.0488 14.9134 94.3861 15.7201 94.623 16.5859C94.8691 17.4518 94.9922 18.3496 94.9922 19.2793ZM91.0957 19.2793C91.0957 18.4225 90.9316 17.6159 90.6035 16.8594C90.2754 16.0938 89.8288 15.4329 89.2637 14.877C88.7077 14.3118 88.0469 13.8652 87.2812 13.5371C86.5247 13.209 85.7181 13.0449 84.8613 13.0449C83.9954 13.0449 83.1842 13.209 82.4277 13.5371C81.6712 13.8652 81.0104 14.3118 80.4453 14.877C79.8802 15.4329 79.4336 16.0938 79.1055 16.8594C78.7773 17.6159 78.6133 18.4225 78.6133 19.2793C78.6133 20.1361 78.7773 20.9427 79.1055 21.6992C79.4336 22.4466 79.8802 23.1029 80.4453 23.668C81.0104 24.2331 81.6712 24.6797 82.4277 25.0078C83.1842 25.3359 83.9954 25.5 84.8613 25.5C85.7181 25.5 86.5247 25.3359 87.2812 25.0078C88.0469 24.6797 88.7077 24.2331 89.2637 23.668C89.8288 23.1029 90.2754 22.4466 90.6035 21.6992C90.9316 20.9427 91.0957 20.1361 91.0957 19.2793ZM113.176 27.0176C112.264 27.7923 111.248 28.3893 110.127 28.8086C109.006 29.2188 107.839 29.4238 106.627 29.4238C105.697 29.4238 104.799 29.3008 103.934 29.0547C103.077 28.8177 102.275 28.4805 101.527 28.043C100.78 27.5964 100.096 27.0677 99.4766 26.457C98.8568 25.8372 98.3281 25.1536 97.8906 24.4062C97.4531 23.6497 97.1113 22.8385 96.8652 21.9727C96.6283 21.1068 96.5098 20.209 96.5098 19.2793C96.5098 18.3496 96.6283 17.4564 96.8652 16.5996C97.1113 15.7428 97.4531 14.9408 97.8906 14.1934C98.3281 13.4368 98.8568 12.7533 99.4766 12.1426C100.096 11.5228 100.78 10.9941 101.527 10.5566C102.275 10.1191 103.077 9.7819 103.934 9.54492C104.799 9.29883 105.697 9.17578 106.627 9.17578C107.839 9.17578 109.006 9.38542 110.127 9.80469C111.248 10.2148 112.264 10.8073 113.176 11.582L111.125 15C110.533 14.3984 109.849 13.929 109.074 13.5918C108.299 13.2454 107.484 13.0723 106.627 13.0723C105.77 13.0723 104.964 13.2363 104.207 13.5645C103.46 13.8926 102.803 14.3392 102.238 14.9043C101.673 15.4603 101.227 16.1165 100.898 16.873C100.57 17.6204 100.406 18.4225 100.406 19.2793C100.406 20.1452 100.57 20.9564 100.898 21.7129C101.227 22.4694 101.673 23.1302 102.238 23.6953C102.803 24.2604 103.46 24.707 104.207 25.0352C104.964 25.3633 105.77 25.5273 106.627 25.5273C107.119 25.5273 107.598 25.4681 108.062 25.3496C108.527 25.2311 108.969 25.0671 109.389 24.8574V19.2793H113.176V27.0176ZM120.121 29H116.197V9.39453H120.121V29ZM122.623 15.2734C122.623 14.4622 122.778 13.7012 123.088 12.9902C123.398 12.2793 123.817 11.6595 124.346 11.1309C124.883 10.5931 125.508 10.1693 126.219 9.85938C126.93 9.54948 127.691 9.39453 128.502 9.39453H137.498V13.3184H128.502C128.229 13.3184 127.973 13.3685 127.736 13.4688C127.499 13.569 127.29 13.7103 127.107 13.8926C126.934 14.0658 126.798 14.2708 126.697 14.5078C126.597 14.7448 126.547 15 126.547 15.2734C126.547 15.5469 126.597 15.8066 126.697 16.0527C126.798 16.2897 126.934 16.4993 127.107 16.6816C127.29 16.8548 127.499 16.9915 127.736 17.0918C127.973 17.1921 128.229 17.2422 128.502 17.2422H132.426C133.237 17.2422 133.998 17.3971 134.709 17.707C135.429 18.0078 136.053 18.4271 136.582 18.9648C137.12 19.4935 137.539 20.1178 137.84 20.8379C138.15 21.5488 138.305 22.3099 138.305 23.1211C138.305 23.9323 138.15 24.6934 137.84 25.4043C137.539 26.1152 137.12 26.7396 136.582 27.2773C136.053 27.806 135.429 28.2253 134.709 28.5352C133.998 28.8451 133.237 29 132.426 29H123.717V25.0762H132.426C132.699 25.0762 132.954 25.026 133.191 24.9258C133.428 24.8255 133.633 24.6888 133.807 24.5156C133.989 24.3333 134.13 24.1237 134.23 23.8867C134.331 23.6497 134.381 23.3945 134.381 23.1211C134.381 22.8477 134.331 22.5924 134.23 22.3555C134.13 22.1185 133.989 21.9134 133.807 21.7402C133.633 21.5579 133.428 21.4167 133.191 21.3164C132.954 21.2161 132.699 21.166 132.426 21.166H128.502C127.691 21.166 126.93 21.0111 126.219 20.7012C125.508 20.3913 124.883 19.972 124.346 19.4434C123.817 18.9056 123.398 18.2812 123.088 17.5703C122.778 16.8503 122.623 16.0846 122.623 15.2734ZM148.846 29H144.936V13.3184H139.043V9.39453H154.725V13.3184H148.846V29ZM160.727 29H156.803V9.39453H160.727V29ZM180.031 26.9902C179.12 27.7741 178.099 28.3757 176.969 28.7949C175.839 29.2142 174.667 29.4238 173.455 29.4238C172.525 29.4238 171.628 29.3008 170.762 29.0547C169.905 28.8177 169.098 28.4805 168.342 28.043C167.594 27.5964 166.911 27.0632 166.291 26.4434C165.671 25.8236 165.138 25.14 164.691 24.3926C164.254 23.6361 163.912 22.8294 163.666 21.9727C163.429 21.1068 163.311 20.209 163.311 19.2793C163.311 18.3496 163.429 17.4518 163.666 16.5859C163.912 15.7201 164.254 14.9134 164.691 14.166C165.138 13.4095 165.671 12.7214 166.291 12.1016C166.911 11.4818 167.594 10.9531 168.342 10.5156C169.098 10.069 169.905 9.72721 170.762 9.49023C171.628 9.24414 172.525 9.12109 173.455 9.12109C174.667 9.12109 175.839 9.33073 176.969 9.75C178.099 10.1602 179.12 10.7617 180.031 11.5547L177.953 14.9727C177.379 14.3529 176.7 13.8789 175.916 13.5508C175.132 13.2135 174.312 13.0449 173.455 13.0449C172.589 13.0449 171.778 13.209 171.021 13.5371C170.265 13.8652 169.604 14.3118 169.039 14.877C168.474 15.4329 168.027 16.0938 167.699 16.8594C167.371 17.6159 167.207 18.4225 167.207 19.2793C167.207 20.1361 167.371 20.9427 167.699 21.6992C168.027 22.4466 168.474 23.1029 169.039 23.668C169.604 24.2331 170.265 24.6797 171.021 25.0078C171.778 25.3359 172.589 25.5 173.455 25.5C174.312 25.5 175.132 25.3359 175.916 25.0078C176.7 24.6706 177.379 24.1921 177.953 23.5723L180.031 26.9902ZM180.92 15.2734C180.92 14.4622 181.075 13.7012 181.385 12.9902C181.695 12.2793 182.114 11.6595 182.643 11.1309C183.18 10.5931 183.805 10.1693 184.516 9.85938C185.227 9.54948 185.988 9.39453 186.799 9.39453H195.795V13.3184H186.799C186.525 13.3184 186.27 13.3685 186.033 13.4688C185.796 13.569 185.587 13.7103 185.404 13.8926C185.231 14.0658 185.094 14.2708 184.994 14.5078C184.894 14.7448 184.844 15 184.844 15.2734C184.844 15.5469 184.894 15.8066 184.994 16.0527C185.094 16.2897 185.231 16.4993 185.404 16.6816C185.587 16.8548 185.796 16.9915 186.033 17.0918C186.27 17.1921 186.525 17.2422 186.799 17.2422H190.723C191.534 17.2422 192.295 17.3971 193.006 17.707C193.726 18.0078 194.35 18.4271 194.879 18.9648C195.417 19.4935 195.836 20.1178 196.137 20.8379C196.447 21.5488 196.602 22.3099 196.602 23.1211C196.602 23.9323 196.447 24.6934 196.137 25.4043C195.836 26.1152 195.417 26.7396 194.879 27.2773C194.35 27.806 193.726 28.2253 193.006 28.5352C192.295 28.8451 191.534 29 190.723 29H182.014V25.0762H190.723C190.996 25.0762 191.251 25.026 191.488 24.9258C191.725 24.8255 191.93 24.6888 192.104 24.5156C192.286 24.3333 192.427 24.1237 192.527 23.8867C192.628 23.6497 192.678 23.3945 192.678 23.1211C192.678 22.8477 192.628 22.5924 192.527 22.3555C192.427 22.1185 192.286 21.9134 192.104 21.7402C191.93 21.5579 191.725 21.4167 191.488 21.3164C191.251 21.2161 190.996 21.166 190.723 21.166H186.799C185.988 21.166 185.227 21.0111 184.516 20.7012C183.805 20.3913 183.18 19.972 182.643 19.4434C182.114 18.9056 181.695 18.2812 181.385 17.5703C181.075 16.8503 180.92 16.0846 180.92 15.2734Z" fill="#FFD336"/>
<path d="M201.44 23.3743C202.021 23.3743 202.538 23.8905 202.538 24.4713V24.5358C202.538 25.1166 202.021 25.6328 201.44 25.6328H197.82H196.463C195.881 25.6328 195.364 26.1491 195.364 26.7298V26.7944C195.364 27.3751 195.881 27.8914 196.463 27.8914H198.661H213.72C221.54 19.696 224.061 9.43573 219.213 4.01519C219.019 3.75707 218.761 3.56348 218.502 3.30536H214.237H210.1H200.341C199.759 3.30536 199.242 3.8216 199.242 4.40237V4.4669C199.242 5.04768 199.759 5.56392 200.341 5.56392H208.355H211.393C211.975 5.56392 212.492 6.08016 212.492 6.66093V6.72546C212.492 7.30623 211.975 7.82248 211.393 7.82248H207.903H202.409C201.827 7.82248 201.31 8.33872 201.31 8.91949V8.98402C201.31 9.56479 201.827 10.081 202.409 10.081H207.45H215.723C216.305 10.081 216.822 10.5973 216.822 11.178V11.2426C216.822 11.8233 216.305 12.3396 215.723 12.3396H206.933H192.521C191.939 12.3396 191.422 12.8558 191.422 13.4366V13.5011C191.422 14.0819 191.939 14.5981 192.521 14.5981H200.599H202.021C202.603 14.5981 203.12 15.1144 203.12 15.6952V15.7597C203.12 16.3405 202.603 16.8567 202.021 16.8567H200.599H197.433C196.851 16.8567 196.334 17.3729 196.334 17.9537V18.0183C196.334 18.599 196.851 19.1153 197.433 19.1153H205.511H207.45C208.032 19.1153 208.549 19.6315 208.549 20.2123V20.0187C208.549 20.5995 208.032 21.1157 207.45 21.1157H204.994H191.099C190.517 21.1157 190 21.6319 190 22.2127V22.2772C190 22.858 190.517 23.3743 191.099 23.3743H191.228H198.337H201.44ZM214.689 7.75794C214.043 7.75794 213.59 7.2417 213.59 6.66093C213.59 6.01563 214.107 5.56392 214.689 5.56392C215.335 5.56392 215.788 6.08016 215.788 6.66093C215.788 7.2417 215.335 7.75794 214.689 7.75794ZM212.298 20.0187C212.298 20.664 211.781 21.1157 211.199 21.1157C210.553 21.1157 210.1 20.5995 210.1 20.0187C210.1 19.3734 210.617 18.9217 211.199 18.9217C211.845 18.8571 212.298 19.3734 212.298 20.0187ZM205.835 16.6631C205.253 16.6631 204.736 16.1469 204.736 15.5661V15.5016C204.736 14.9208 205.253 14.4046 205.835 14.4046H209.389C209.971 14.4046 210.488 14.9208 210.488 15.5016V15.5661C210.488 16.1469 209.971 16.6631 209.389 16.6631H205.835Z" fill="url(#paint0_linear)"/>
<path d="M230.136 21.8255H226.129L229.813 4.53145C229.942 3.82162 229.49 3.24084 228.779 3.24084H221.605C221.863 3.43444 222.057 3.69256 222.316 3.95068C227.163 9.37122 224.642 19.6315 216.822 27.8269H228.908C229.619 27.8269 230.33 27.2461 230.459 26.5363L231.17 23.1162C231.299 22.4063 230.847 21.8255 230.136 21.8255Z" fill="url(#paint1_linear)"/>
<path d="M245.647 23.3743H245.389L246.1 20.0832C246.229 19.3734 246.1 18.2764 245.712 17.6311L241.059 9.30669C240.735 8.66138 239.831 8.14514 239.12 8.14514H230.33C229.619 8.14514 228.908 8.72591 228.779 9.43575L225.159 26.4717C225.03 27.1816 225.482 27.7623 226.193 27.7623H243.191C243.256 27.7623 243.256 27.7623 243.321 27.7623C243.385 27.7623 243.385 27.7623 243.45 27.7623H244.807C245.26 27.7623 245.777 27.3752 245.841 26.9234L246.423 24.2132C246.488 23.7615 246.164 23.3743 245.647 23.3743Z" fill="url(#paint2_linear)"/>
<path d="M242.933 17.3729C242.868 17.6956 242.416 18.0182 241.899 18.0182H231.041C230.588 18.0182 230.265 17.6311 230.33 17.1794L231.687 10.7909C231.816 10.3391 232.269 9.95197 232.721 9.95197H238.344C238.796 9.95197 239.378 10.2746 239.637 10.7263L242.61 16.0178C242.868 16.405 242.997 17.0503 242.933 17.3729Z" fill="white"/>
<path d="M239.055 27.8268C238.538 30.2144 236.211 32.1503 233.755 32.1503C231.364 32.1503 229.813 30.2144 230.33 27.8268C230.847 25.4392 233.174 23.5033 235.63 23.5033C238.021 23.5033 239.507 25.4392 239.055 27.8268Z" fill="url(#paint3_linear)"/>
<path d="M236.47 27.8269C236.276 28.7948 235.306 29.6337 234.272 29.6337C233.303 29.6337 232.657 28.7948 232.85 27.8269C233.044 26.8589 234.014 26.02 235.048 26.02C236.082 26.02 236.664 26.7944 236.47 27.8269Z" fill="white"/>
<path d="M212.039 27.8268C211.522 30.2144 209.195 32.1503 206.739 32.1503C204.348 32.1503 202.797 30.2144 203.314 27.8268C203.831 25.4392 206.158 23.5033 208.614 23.5033C211.005 23.5033 212.556 25.4392 212.039 27.8268Z" fill="url(#paint4_linear)"/>
<path d="M209.519 27.8269C209.325 28.7948 208.355 29.6337 207.321 29.6337C206.352 29.6337 205.705 28.7948 205.899 27.8269C206.093 26.8589 207.063 26.02 208.097 26.02C209.131 26.02 209.712 26.7944 209.519 27.8269Z" fill="white"/>
<path d="M216.951 29.0529C210.682 34.6671 203.249 37.5064 197.433 36.9256C202.603 36.4739 208.614 33.6991 213.849 29.0529C223.22 20.664 226.517 9.1131 221.281 3.30538C219.601 1.43401 217.145 0.336993 214.366 0.078872C218.438 -0.308309 222.057 0.724174 224.319 3.30538C229.684 9.1131 226.323 20.5995 216.951 29.0529Z" fill="url(#paint5_linear)"/>
<defs>
<linearGradient id="paint0_linear" x1="231.041" y1="15.5418" x2="188.814" y2="15.5418" gradientUnits="userSpaceOnUse">
<stop offset="0.1241" stop-color="#FE0600"/>
<stop offset="0.8621" stop-color="#FFB904"/>
</linearGradient>
<linearGradient id="paint1_linear" x1="217.072" y1="17.9954" x2="252.308" y2="7.51859" gradientUnits="userSpaceOnUse">
<stop stop-color="#9700F2"/>
<stop offset="1" stop-color="#3F7AFF"/>
</linearGradient>
<linearGradient id="paint2_linear" x1="218.73" y1="23.5712" x2="253.966" y2="13.0944" gradientUnits="userSpaceOnUse">
<stop stop-color="#9700F2"/>
<stop offset="1" stop-color="#3F7AFF"/>
</linearGradient>
<linearGradient id="paint3_linear" x1="221.181" y1="31.8125" x2="256.416" y2="21.3356" gradientUnits="userSpaceOnUse">
<stop stop-color="#9700F2"/>
<stop offset="1" stop-color="#3F7AFF"/>
</linearGradient>
<linearGradient id="paint4_linear" x1="231.041" y1="27.8125" x2="188.813" y2="27.8125" gradientUnits="userSpaceOnUse">
<stop offset="0.1241" stop-color="#FE0600"/>
<stop offset="0.8621" stop-color="#FFB904"/>
</linearGradient>
<linearGradient id="paint5_linear" x1="216.494" y1="16.0508" x2="251.729" y2="5.57412" gradientUnits="userSpaceOnUse">
<stop stop-color="#9700F2"/>
<stop offset="1" stop-color="#3F7AFF"/>
</linearGradient>
</defs>
</svg>
