<svg width="227" height="40" viewBox="0 0 227 40" fill="none" xmlns="http://www.w3.org/2000/svg">
<path d="M0.765625 16.3125C0.765625 15.3854 0.942708 14.5156 1.29688 13.7031C1.65104 12.8906 2.13021 12.1823 2.73438 11.5781C3.34896 10.9635 4.0625 10.4792 4.875 10.125C5.6875 9.77083 6.55729 9.59375 7.48438 9.59375H17.7656V14.0781H7.48438C7.17188 14.0781 6.88021 14.1354 6.60938 14.25C6.33854 14.3646 6.09896 14.526 5.89062 14.7344C5.69271 14.9323 5.53646 15.1667 5.42188 15.4375C5.30729 15.7083 5.25 16 5.25 16.3125C5.25 16.625 5.30729 16.9219 5.42188 17.2031C5.53646 17.474 5.69271 17.7135 5.89062 17.9219C6.09896 18.1198 6.33854 18.276 6.60938 18.3906C6.88021 18.5052 7.17188 18.5625 7.48438 18.5625H11.9688C12.8958 18.5625 13.7656 18.7396 14.5781 19.0938C15.401 19.4375 16.1146 19.9167 16.7188 20.5312C17.3333 21.1354 17.8125 21.849 18.1562 22.6719C18.5104 23.4844 18.6875 24.3542 18.6875 25.2812C18.6875 26.2083 18.5104 27.0781 18.1562 27.8906C17.8125 28.7031 17.3333 29.4167 16.7188 30.0312C16.1146 30.6354 15.401 31.1146 14.5781 31.4688C13.7656 31.8229 12.8958 32 11.9688 32H2.01562V27.5156H11.9688C12.2812 27.5156 12.5729 27.4583 12.8438 27.3438C13.1146 27.2292 13.349 27.0729 13.5469 26.875C13.7552 26.6667 13.9167 26.4271 14.0312 26.1562C14.1458 25.8854 14.2031 25.5938 14.2031 25.2812C14.2031 24.9688 14.1458 24.6771 14.0312 24.4062C13.9167 24.1354 13.7552 23.901 13.5469 23.7031C13.349 23.4948 13.1146 23.3333 12.8438 23.2188C12.5729 23.1042 12.2812 23.0469 11.9688 23.0469H7.48438C6.55729 23.0469 5.6875 22.8698 4.875 22.5156C4.0625 22.1615 3.34896 21.6823 2.73438 21.0781C2.13021 20.4635 1.65104 19.75 1.29688 18.9375C0.942708 18.1146 0.765625 17.2396 0.765625 16.3125ZM30.7344 32H26.2656V14.0781H19.5312V9.59375H37.4531V14.0781H30.7344V32ZM55.1875 32H39.8281V9.59375H55.1875V14.0781H44.3125V18.5625H51.6719V23.0469H44.3125V27.5156H55.1875V32ZM76.2812 20.7969C76.2812 21.8281 76.1458 22.8229 75.875 23.7812C75.6146 24.7292 75.2396 25.6198 74.75 26.4531C74.2604 27.276 73.6771 28.0312 73 28.7188C72.3229 29.3958 71.5677 29.9792 70.7344 30.4688C69.901 30.9583 69.0052 31.3385 68.0469 31.6094C67.099 31.8698 66.1094 32 65.0781 32H58.3281V9.59375H65.0781C66.1094 9.59375 67.099 9.72917 68.0469 10C69.0052 10.2604 69.901 10.6354 70.7344 11.125C71.5677 11.6146 72.3229 12.2031 73 12.8906C73.6771 13.5677 74.2604 14.3229 74.75 15.1562C75.2396 15.9792 75.6146 16.8698 75.875 17.8281C76.1458 18.776 76.2812 19.7656 76.2812 20.7969ZM71.7969 20.7969C71.7969 19.8698 71.6198 19 71.2656 18.1875C70.9219 17.375 70.4427 16.6667 69.8281 16.0625C69.224 15.4479 68.5104 14.9635 67.6875 14.6094C66.875 14.2552 66.0052 14.0781 65.0781 14.0781H62.8438V27.5156H65.0781C66.0052 27.5156 66.875 27.3438 67.6875 27C68.5104 26.6458 69.224 26.1667 69.8281 25.5625C70.4427 24.9479 70.9219 24.2344 71.2656 23.4219C71.6198 22.599 71.7969 21.724 71.7969 20.7969Z" fill="white"/>
<path d="M83.75 32H79.2656V9.59375H94.9531V14.0781H83.75V18.5625H90.4688V23.0469H83.75V32ZM109.953 23.0469V18.5625C109.953 17.9479 109.833 17.3698 109.594 16.8281C109.365 16.276 109.047 15.7969 108.641 15.3906C108.234 14.9844 107.755 14.6667 107.203 14.4375C106.661 14.1979 106.083 14.0781 105.469 14.0781C104.854 14.0781 104.271 14.1979 103.719 14.4375C103.177 14.6667 102.703 14.9844 102.297 15.3906C101.891 15.7969 101.568 16.276 101.328 16.8281C101.099 17.3698 100.984 17.9479 100.984 18.5625V23.0469H109.953ZM114.438 32H109.953V27.5156H100.984V32H96.5156V18.5625C96.5156 17.3229 96.75 16.1615 97.2188 15.0781C97.6875 13.9844 98.3229 13.0312 99.125 12.2188C99.9375 11.4062 100.885 10.7656 101.969 10.2969C103.062 9.82812 104.229 9.59375 105.469 9.59375C106.708 9.59375 107.87 9.82812 108.953 10.2969C110.047 10.7656 111 11.4062 111.812 12.2188C112.625 13.0312 113.266 13.9844 113.734 15.0781C114.203 16.1615 114.438 17.3229 114.438 18.5625V32ZM117.016 16.3125C117.016 15.3854 117.193 14.5156 117.547 13.7031C117.901 12.8906 118.38 12.1823 118.984 11.5781C119.599 10.9635 120.312 10.4792 121.125 10.125C121.938 9.77083 122.807 9.59375 123.734 9.59375H134.016V14.0781H123.734C123.422 14.0781 123.13 14.1354 122.859 14.25C122.589 14.3646 122.349 14.526 122.141 14.7344C121.943 14.9323 121.786 15.1667 121.672 15.4375C121.557 15.7083 121.5 16 121.5 16.3125C121.5 16.625 121.557 16.9219 121.672 17.2031C121.786 17.474 121.943 17.7135 122.141 17.9219C122.349 18.1198 122.589 18.276 122.859 18.3906C123.13 18.5052 123.422 18.5625 123.734 18.5625H128.219C129.146 18.5625 130.016 18.7396 130.828 19.0938C131.651 19.4375 132.365 19.9167 132.969 20.5312C133.583 21.1354 134.062 21.849 134.406 22.6719C134.76 23.4844 134.938 24.3542 134.938 25.2812C134.938 26.2083 134.76 27.0781 134.406 27.8906C134.062 28.7031 133.583 29.4167 132.969 30.0312C132.365 30.6354 131.651 31.1146 130.828 31.4688C130.016 31.8229 129.146 32 128.219 32H118.266V27.5156H128.219C128.531 27.5156 128.823 27.4583 129.094 27.3438C129.365 27.2292 129.599 27.0729 129.797 26.875C130.005 26.6667 130.167 26.4271 130.281 26.1562C130.396 25.8854 130.453 25.5938 130.453 25.2812C130.453 24.9688 130.396 24.6771 130.281 24.4062C130.167 24.1354 130.005 23.901 129.797 23.7031C129.599 23.4948 129.365 23.3333 129.094 23.2188C128.823 23.1042 128.531 23.0469 128.219 23.0469H123.734C122.807 23.0469 121.938 22.8698 121.125 22.5156C120.312 22.1615 119.599 21.6823 118.984 21.0781C118.38 20.4635 117.901 19.75 117.547 18.9375C117.193 18.1146 117.016 17.2396 117.016 16.3125ZM147.297 32H142.828V14.0781H136.094V9.59375H154.016V14.0781H147.297V32ZM152.998 16.3125C152.998 15.3854 153.175 14.5156 153.529 13.7031C153.884 12.8906 154.363 12.1823 154.967 11.5781C155.581 10.9635 156.295 10.4792 157.107 10.125C157.92 9.77083 158.79 9.59375 159.717 9.59375H169.998V14.0781H159.717C159.404 14.0781 159.113 14.1354 158.842 14.25C158.571 14.3646 158.331 14.526 158.123 14.7344C157.925 14.9323 157.769 15.1667 157.654 15.4375C157.54 15.7083 157.482 16 157.482 16.3125C157.482 16.625 157.54 16.9219 157.654 17.2031C157.769 17.474 157.925 17.7135 158.123 17.9219C158.331 18.1198 158.571 18.276 158.842 18.3906C159.113 18.5052 159.404 18.5625 159.717 18.5625H164.201C165.128 18.5625 165.998 18.7396 166.811 19.0938C167.634 19.4375 168.347 19.9167 168.951 20.5312C169.566 21.1354 170.045 21.849 170.389 22.6719C170.743 23.4844 170.92 24.3542 170.92 25.2812C170.92 26.2083 170.743 27.0781 170.389 27.8906C170.045 28.7031 169.566 29.4167 168.951 30.0312C168.347 30.6354 167.634 31.1146 166.811 31.4688C165.998 31.8229 165.128 32 164.201 32H154.248V27.5156H164.201C164.514 27.5156 164.805 27.4583 165.076 27.3438C165.347 27.2292 165.581 27.0729 165.779 26.875C165.988 26.6667 166.149 26.4271 166.264 26.1562C166.378 25.8854 166.436 25.5938 166.436 25.2812C166.436 24.9688 166.378 24.6771 166.264 24.4062C166.149 24.1354 165.988 23.901 165.779 23.7031C165.581 23.4948 165.347 23.3333 165.076 23.2188C164.805 23.1042 164.514 23.0469 164.201 23.0469H159.717C158.79 23.0469 157.92 22.8698 157.107 22.5156C156.295 22.1615 155.581 21.6823 154.967 21.0781C154.363 20.4635 153.884 19.75 153.529 18.9375C153.175 18.1146 152.998 17.2396 152.998 16.3125Z" fill="#AC87FF"/>
<line x1="176" y1="11" x2="227" y2="11" stroke="white" stroke-width="4"/>
<line x1="176" y1="21" x2="212" y2="21" stroke="white" stroke-width="4"/>
<line x1="176" y1="30" x2="194" y2="30" stroke="white" stroke-width="4"/>
</svg>
