<svg width="179" height="39" viewBox="0 0 179 39" fill="none" xmlns="http://www.w3.org/2000/svg">
<path d="M0.574219 12.2344C0.574219 11.5391 0.707031 10.8867 0.972656 10.2773C1.23828 9.66797 1.59766 9.13672 2.05078 8.68359C2.51172 8.22266 3.04688 7.85938 3.65625 7.59375C4.26562 7.32812 4.91797 7.19531 5.61328 7.19531H13.3242V10.5586H5.61328C5.37891 10.5586 5.16016 10.6016 4.95703 10.6875C4.75391 10.7734 4.57422 10.8945 4.41797 11.0508C4.26953 11.1992 4.15234 11.375 4.06641 11.5781C3.98047 11.7812 3.9375 12 3.9375 12.2344C3.9375 12.4688 3.98047 12.6914 4.06641 12.9023C4.15234 13.1055 4.26953 13.2852 4.41797 13.4414C4.57422 13.5898 4.75391 13.707 4.95703 13.793C5.16016 13.8789 5.37891 13.9219 5.61328 13.9219H8.97656C9.67188 13.9219 10.3242 14.0547 10.9336 14.3203C11.5508 14.5781 12.0859 14.9375 12.5391 15.3984C13 15.8516 13.3594 16.3867 13.6172 17.0039C13.8828 17.6133 14.0156 18.2656 14.0156 18.9609C14.0156 19.6562 13.8828 20.3086 13.6172 20.918C13.3594 21.5273 13 22.0625 12.5391 22.5234C12.0859 22.9766 11.5508 23.3359 10.9336 23.6016C10.3242 23.8672 9.67188 24 8.97656 24H1.51172V20.6367H8.97656C9.21094 20.6367 9.42969 20.5938 9.63281 20.5078C9.83594 20.4219 10.0117 20.3047 10.1602 20.1562C10.3164 20 10.4375 19.8203 10.5234 19.6172C10.6094 19.4141 10.6523 19.1953 10.6523 18.9609C10.6523 18.7266 10.6094 18.5078 10.5234 18.3047C10.4375 18.1016 10.3164 17.9258 10.1602 17.7773C10.0117 17.6211 9.83594 17.5 9.63281 17.4141C9.42969 17.3281 9.21094 17.2852 8.97656 17.2852H5.61328C4.91797 17.2852 4.26562 17.1523 3.65625 16.8867C3.04688 16.6211 2.51172 16.2617 2.05078 15.8086C1.59766 15.3477 1.23828 14.8125 0.972656 14.2031C0.707031 13.5859 0.574219 12.9297 0.574219 12.2344ZM23.0508 24H19.6992V10.5586H14.6484V7.19531H28.0898V10.5586H23.0508V24ZM41.3906 24H29.8711V7.19531H41.3906V10.5586H33.2344V13.9219H38.7539V17.2852H33.2344V20.6367H41.3906V24ZM57.2109 15.5977C57.2109 16.3711 57.1094 17.1172 56.9062 17.8359C56.7109 18.5469 56.4297 19.2148 56.0625 19.8398C55.6953 20.457 55.2578 21.0234 54.75 21.5391C54.2422 22.0469 53.6758 22.4844 53.0508 22.8516C52.4258 23.2188 51.7539 23.5039 51.0352 23.707C50.3242 23.9023 49.582 24 48.8086 24H43.7461V7.19531H48.8086C49.582 7.19531 50.3242 7.29688 51.0352 7.5C51.7539 7.69531 52.4258 7.97656 53.0508 8.34375C53.6758 8.71094 54.2422 9.15234 54.75 9.66797C55.2578 10.1758 55.6953 10.7422 56.0625 11.3672C56.4297 11.9844 56.7109 12.6523 56.9062 13.3711C57.1094 14.082 57.2109 14.8242 57.2109 15.5977ZM53.8477 15.5977C53.8477 14.9023 53.7148 14.25 53.4492 13.6406C53.1914 13.0312 52.832 12.5 52.3711 12.0469C51.918 11.5859 51.3828 11.2227 50.7656 10.957C50.1562 10.6914 49.5039 10.5586 48.8086 10.5586H47.1328V20.6367H48.8086C49.5039 20.6367 50.1562 20.5078 50.7656 20.25C51.3828 19.9844 51.918 19.625 52.3711 19.1719C52.832 18.7109 53.1914 18.1758 53.4492 17.5664C53.7148 16.9492 53.8477 16.293 53.8477 15.5977Z" fill="white"/>
<path d="M62.8125 24H59.4492V7.19531H71.2148V10.5586H62.8125V13.9219H67.8516V17.2852H62.8125V24ZM82.4648 17.2852V13.9219C82.4648 13.4609 82.375 13.0273 82.1953 12.6211C82.0234 12.207 81.7852 11.8477 81.4805 11.543C81.1758 11.2383 80.8164 11 80.4023 10.8281C79.9961 10.6484 79.5625 10.5586 79.1016 10.5586C78.6406 10.5586 78.2031 10.6484 77.7891 10.8281C77.3828 11 77.0273 11.2383 76.7227 11.543C76.418 11.8477 76.1758 12.207 75.9961 12.6211C75.8242 13.0273 75.7383 13.4609 75.7383 13.9219V17.2852H82.4648ZM85.8281 24H82.4648V20.6367H75.7383V24H72.3867V13.9219C72.3867 12.9922 72.5625 12.1211 72.9141 11.3086C73.2656 10.4883 73.7422 9.77344 74.3438 9.16406C74.9531 8.55469 75.6641 8.07422 76.4766 7.72266C77.2969 7.37109 78.1719 7.19531 79.1016 7.19531C80.0312 7.19531 80.9023 7.37109 81.7148 7.72266C82.5352 8.07422 83.25 8.55469 83.8594 9.16406C84.4688 9.77344 84.9492 10.4883 85.3008 11.3086C85.6523 12.1211 85.8281 12.9922 85.8281 13.9219V24ZM87.7617 12.2344C87.7617 11.5391 87.8945 10.8867 88.1602 10.2773C88.4258 9.66797 88.7852 9.13672 89.2383 8.68359C89.6992 8.22266 90.2344 7.85938 90.8438 7.59375C91.4531 7.32812 92.1055 7.19531 92.8008 7.19531H100.512V10.5586H92.8008C92.5664 10.5586 92.3477 10.6016 92.1445 10.6875C91.9414 10.7734 91.7617 10.8945 91.6055 11.0508C91.457 11.1992 91.3398 11.375 91.2539 11.5781C91.168 11.7812 91.125 12 91.125 12.2344C91.125 12.4688 91.168 12.6914 91.2539 12.9023C91.3398 13.1055 91.457 13.2852 91.6055 13.4414C91.7617 13.5898 91.9414 13.707 92.1445 13.793C92.3477 13.8789 92.5664 13.9219 92.8008 13.9219H96.1641C96.8594 13.9219 97.5117 14.0547 98.1211 14.3203C98.7383 14.5781 99.2734 14.9375 99.7266 15.3984C100.188 15.8516 100.547 16.3867 100.805 17.0039C101.07 17.6133 101.203 18.2656 101.203 18.9609C101.203 19.6562 101.07 20.3086 100.805 20.918C100.547 21.5273 100.188 22.0625 99.7266 22.5234C99.2734 22.9766 98.7383 23.3359 98.1211 23.6016C97.5117 23.8672 96.8594 24 96.1641 24H88.6992V20.6367H96.1641C96.3984 20.6367 96.6172 20.5938 96.8203 20.5078C97.0234 20.4219 97.1992 20.3047 97.3477 20.1562C97.5039 20 97.625 19.8203 97.7109 19.6172C97.7969 19.4141 97.8398 19.1953 97.8398 18.9609C97.8398 18.7266 97.7969 18.5078 97.7109 18.3047C97.625 18.1016 97.5039 17.9258 97.3477 17.7773C97.1992 17.6211 97.0234 17.5 96.8203 17.4141C96.6172 17.3281 96.3984 17.2852 96.1641 17.2852H92.8008C92.1055 17.2852 91.4531 17.1523 90.8438 16.8867C90.2344 16.6211 89.6992 16.2617 89.2383 15.8086C88.7852 15.3477 88.4258 14.8125 88.1602 14.2031C87.8945 13.5859 87.7617 12.9297 87.7617 12.2344ZM110.473 24H107.121V10.5586H102.07V7.19531H115.512V10.5586H110.473V24ZM114.749 12.2344C114.749 11.5391 114.881 10.8867 115.147 10.2773C115.413 9.66797 115.772 9.13672 116.225 8.68359C116.686 8.22266 117.221 7.85938 117.831 7.59375C118.44 7.32812 119.092 7.19531 119.788 7.19531H127.499V10.5586H119.788C119.553 10.5586 119.335 10.6016 119.131 10.6875C118.928 10.7734 118.749 10.8945 118.592 11.0508C118.444 11.1992 118.327 11.375 118.241 11.5781C118.155 11.7812 118.112 12 118.112 12.2344C118.112 12.4688 118.155 12.6914 118.241 12.9023C118.327 13.1055 118.444 13.2852 118.592 13.4414C118.749 13.5898 118.928 13.707 119.131 13.793C119.335 13.8789 119.553 13.9219 119.788 13.9219H123.151C123.846 13.9219 124.499 14.0547 125.108 14.3203C125.725 14.5781 126.26 14.9375 126.713 15.3984C127.174 15.8516 127.534 16.3867 127.792 17.0039C128.057 17.6133 128.19 18.2656 128.19 18.9609C128.19 19.6562 128.057 20.3086 127.792 20.918C127.534 21.5273 127.174 22.0625 126.713 22.5234C126.26 22.9766 125.725 23.3359 125.108 23.6016C124.499 23.8672 123.846 24 123.151 24H115.686V20.6367H123.151C123.385 20.6367 123.604 20.5938 123.807 20.5078C124.01 20.4219 124.186 20.3047 124.335 20.1562C124.491 20 124.612 19.8203 124.698 19.6172C124.784 19.4141 124.827 19.1953 124.827 18.9609C124.827 18.7266 124.784 18.5078 124.698 18.3047C124.612 18.1016 124.491 17.9258 124.335 17.7773C124.186 17.6211 124.01 17.5 123.807 17.4141C123.604 17.3281 123.385 17.2852 123.151 17.2852H119.788C119.092 17.2852 118.44 17.1523 117.831 16.8867C117.221 16.6211 116.686 16.2617 116.225 15.8086C115.772 15.3477 115.413 14.8125 115.147 14.2031C114.881 13.5859 114.749 12.9297 114.749 12.2344Z" fill="#AC87FF"/>
<line x1="137.258" y1="7.67499" x2="179" y2="7.67499" stroke="white" stroke-width="4"/>
<line x1="137.258" y1="17.425" x2="166.723" y2="17.425" stroke="white" stroke-width="4"/>
<line x1="137.258" y1="26.2" x2="151.99" y2="26.2" stroke="white" stroke-width="4"/>
</svg>
