<svg width="219" height="42" viewBox="0 0 219 42" fill="none" xmlns="http://www.w3.org/2000/svg">
<path d="M0.526367 14.2148C0.526367 13.5775 0.648112 12.9795 0.891602 12.4209C1.13509 11.8623 1.46452 11.3753 1.87988 10.96C2.30241 10.5374 2.79297 10.2044 3.35156 9.96094C3.91016 9.71745 4.50814 9.5957 5.14551 9.5957H12.2139V12.6787H5.14551C4.93066 12.6787 4.73014 12.7181 4.54395 12.7969C4.35775 12.8757 4.19303 12.9867 4.0498 13.1299C3.91374 13.266 3.80632 13.4271 3.72754 13.6133C3.64876 13.7995 3.60938 14 3.60938 14.2148C3.60938 14.4297 3.64876 14.6338 3.72754 14.8271C3.80632 15.0133 3.91374 15.1781 4.0498 15.3213C4.19303 15.4574 4.35775 15.5648 4.54395 15.6436C4.73014 15.7223 4.93066 15.7617 5.14551 15.7617H8.22852C8.86589 15.7617 9.46387 15.8835 10.0225 16.127C10.5882 16.3633 11.0788 16.6927 11.4941 17.1152C11.9167 17.5306 12.2461 18.0212 12.4824 18.5869C12.7259 19.1455 12.8477 19.7435 12.8477 20.3809C12.8477 21.0182 12.7259 21.6162 12.4824 22.1748C12.2461 22.7334 11.9167 23.224 11.4941 23.6465C11.0788 24.0618 10.5882 24.3913 10.0225 24.6348C9.46387 24.8783 8.86589 25 8.22852 25H1.38574V21.917H8.22852C8.44336 21.917 8.64388 21.8776 8.83008 21.7988C9.01628 21.7201 9.17741 21.6126 9.31348 21.4766C9.45671 21.3333 9.56771 21.1686 9.64648 20.9824C9.72526 20.7962 9.76465 20.5957 9.76465 20.3809C9.76465 20.166 9.72526 19.9655 9.64648 19.7793C9.56771 19.5931 9.45671 19.432 9.31348 19.2959C9.17741 19.1527 9.01628 19.0417 8.83008 18.9629C8.64388 18.8841 8.44336 18.8447 8.22852 18.8447H5.14551C4.50814 18.8447 3.91016 18.723 3.35156 18.4795C2.79297 18.236 2.30241 17.9066 1.87988 17.4912C1.46452 17.0687 1.13509 16.5781 0.891602 16.0195C0.648112 15.4538 0.526367 14.8522 0.526367 14.2148ZM21.1299 25H18.0576V12.6787H13.4277V9.5957H25.749V12.6787H21.1299V25ZM30.4648 12.6787V18.8447H33.5479C33.9704 18.8447 34.3678 18.766 34.7402 18.6084C35.1126 18.4437 35.4385 18.2217 35.7178 17.9424C35.9971 17.6631 36.2155 17.3372 36.373 16.9648C36.5378 16.5853 36.6201 16.1842 36.6201 15.7617C36.6201 15.3392 36.5378 14.9417 36.373 14.5693C36.2155 14.1898 35.9971 13.8604 35.7178 13.5811C35.4385 13.3018 35.1126 13.0833 34.7402 12.9258C34.3678 12.7611 33.9704 12.6787 33.5479 12.6787H30.4648ZM30.4648 25H27.3818V9.5957H33.5479C34.1136 9.5957 34.6579 9.6709 35.1807 9.82129C35.7035 9.96452 36.1904 10.1722 36.6416 10.4443C37.0999 10.7093 37.5153 11.0316 37.8877 11.4111C38.2673 11.7835 38.5895 12.1989 38.8545 12.6572C39.1266 13.1156 39.3343 13.6061 39.4775 14.1289C39.6279 14.6517 39.7031 15.196 39.7031 15.7617C39.7031 16.6068 39.542 17.4053 39.2197 18.1572C38.8975 18.902 38.457 19.5537 37.8984 20.1123C37.3398 20.6709 36.6846 21.1113 35.9326 21.4336C35.1878 21.7559 34.3929 21.917 33.5479 21.917H30.4648V25Z" fill="white"/>
<path d="M58.4697 25H47.6846V9.5957H50.7676V21.917H58.4697V25ZM74.6367 17.3623C74.6367 18.0928 74.54 18.7982 74.3467 19.4785C74.1605 20.1517 73.8955 20.7855 73.5518 21.3799C73.208 21.9671 72.7926 22.5042 72.3057 22.9912C71.8187 23.4782 71.2816 23.8971 70.6943 24.248C70.1071 24.5918 69.4733 24.8568 68.793 25.043C68.1126 25.2363 67.4072 25.333 66.6768 25.333C65.9463 25.333 65.2409 25.2363 64.5605 25.043C63.8874 24.8568 63.2536 24.5918 62.6592 24.248C62.0719 23.8971 61.5348 23.4782 61.0479 22.9912C60.5609 22.5042 60.1419 21.9671 59.791 21.3799C59.4473 20.7855 59.1787 20.1517 58.9854 19.4785C58.7992 18.7982 58.7061 18.0928 58.7061 17.3623C58.7061 16.6318 58.7992 15.9264 58.9854 15.2461C59.1787 14.5658 59.4473 13.932 59.791 13.3447C60.1419 12.7575 60.5609 12.2204 61.0479 11.7334C61.5348 11.2464 62.0719 10.8311 62.6592 10.4873C63.2536 10.1436 63.8874 9.87858 64.5605 9.69238C65.2409 9.49902 65.9463 9.40234 66.6768 9.40234C67.4072 9.40234 68.1126 9.49902 68.793 9.69238C69.4733 9.87858 70.1071 10.1436 70.6943 10.4873C71.2816 10.8311 71.8187 11.2464 72.3057 11.7334C72.7926 12.2204 73.208 12.7575 73.5518 13.3447C73.8955 13.932 74.1605 14.5658 74.3467 15.2461C74.54 15.9264 74.6367 16.6318 74.6367 17.3623ZM71.5752 17.3623C71.5752 16.6891 71.4463 16.0553 71.1885 15.4609C70.9307 14.8594 70.5798 14.3402 70.1357 13.9033C69.6989 13.4593 69.1797 13.1084 68.5781 12.8506C67.9837 12.5928 67.3499 12.4639 66.6768 12.4639C65.9964 12.4639 65.359 12.5928 64.7646 12.8506C64.1702 13.1084 63.651 13.4593 63.207 13.9033C62.763 14.3402 62.4121 14.8594 62.1543 15.4609C61.8965 16.0553 61.7676 16.6891 61.7676 17.3623C61.7676 18.0355 61.8965 18.6693 62.1543 19.2637C62.4121 19.8509 62.763 20.3665 63.207 20.8105C63.651 21.2546 64.1702 21.6055 64.7646 21.8633C65.359 22.1211 65.9964 22.25 66.6768 22.25C67.3499 22.25 67.9837 22.1211 68.5781 21.8633C69.1797 21.6055 69.6989 21.2546 70.1357 20.8105C70.5798 20.3665 70.9307 19.8509 71.1885 19.2637C71.4463 18.6693 71.5752 18.0355 71.5752 17.3623ZM88.9238 23.4424C88.2077 24.0511 87.4092 24.5202 86.5283 24.8496C85.6475 25.1719 84.7308 25.333 83.7783 25.333C83.0479 25.333 82.3424 25.2363 81.6621 25.043C80.9889 24.8568 80.3587 24.5918 79.7715 24.248C79.1842 23.8971 78.6471 23.4818 78.1602 23.002C77.6732 22.515 77.2578 21.9779 76.9141 21.3906C76.5703 20.7962 76.3018 20.1589 76.1084 19.4785C75.9222 18.7982 75.8291 18.0928 75.8291 17.3623C75.8291 16.6318 75.9222 15.93 76.1084 15.2568C76.3018 14.5837 76.5703 13.9535 76.9141 13.3662C77.2578 12.7718 77.6732 12.2347 78.1602 11.7549C78.6471 11.2679 79.1842 10.8525 79.7715 10.5088C80.3587 10.165 80.9889 9.90007 81.6621 9.71387C82.3424 9.52051 83.0479 9.42383 83.7783 9.42383C84.7308 9.42383 85.6475 9.58854 86.5283 9.91797C87.4092 10.2402 88.2077 10.7057 88.9238 11.3145L87.3125 14C86.847 13.5273 86.3099 13.1585 85.7012 12.8936C85.0924 12.6214 84.4515 12.4854 83.7783 12.4854C83.1051 12.4854 82.4714 12.6143 81.877 12.8721C81.2897 13.1299 80.7741 13.4808 80.3301 13.9248C79.8861 14.3617 79.5352 14.8773 79.2773 15.4717C79.0195 16.0589 78.8906 16.6891 78.8906 17.3623C78.8906 18.0426 79.0195 18.68 79.2773 19.2744C79.5352 19.8688 79.8861 20.388 80.3301 20.832C80.7741 21.276 81.2897 21.627 81.877 21.8848C82.4714 22.1426 83.1051 22.2715 83.7783 22.2715C84.165 22.2715 84.541 22.2249 84.9062 22.1318C85.2715 22.0387 85.6188 21.9098 85.9482 21.7451V17.3623H88.9238V23.4424ZM94.3809 25H91.2979V9.5957H94.3809V25ZM96.3467 14.2148C96.3467 13.5775 96.4684 12.9795 96.7119 12.4209C96.9554 11.8623 97.2848 11.3753 97.7002 10.96C98.1227 10.5374 98.6133 10.2044 99.1719 9.96094C99.7305 9.71745 100.328 9.5957 100.966 9.5957H108.034V12.6787H100.966C100.751 12.6787 100.55 12.7181 100.364 12.7969C100.178 12.8757 100.013 12.9867 99.8701 13.1299C99.734 13.266 99.6266 13.4271 99.5479 13.6133C99.4691 13.7995 99.4297 14 99.4297 14.2148C99.4297 14.4297 99.4691 14.6338 99.5479 14.8271C99.6266 15.0133 99.734 15.1781 99.8701 15.3213C100.013 15.4574 100.178 15.5648 100.364 15.6436C100.55 15.7223 100.751 15.7617 100.966 15.7617H104.049C104.686 15.7617 105.284 15.8835 105.843 16.127C106.409 16.3633 106.899 16.6927 107.314 17.1152C107.737 17.5306 108.066 18.0212 108.303 18.5869C108.546 19.1455 108.668 19.7435 108.668 20.3809C108.668 21.0182 108.546 21.6162 108.303 22.1748C108.066 22.7334 107.737 23.224 107.314 23.6465C106.899 24.0618 106.409 24.3913 105.843 24.6348C105.284 24.8783 104.686 25 104.049 25H97.2061V21.917H104.049C104.264 21.917 104.464 21.8776 104.65 21.7988C104.837 21.7201 104.998 21.6126 105.134 21.4766C105.277 21.3333 105.388 21.1686 105.467 20.9824C105.546 20.7962 105.585 20.5957 105.585 20.3809C105.585 20.166 105.546 19.9655 105.467 19.7793C105.388 19.5931 105.277 19.432 105.134 19.2959C104.998 19.1527 104.837 19.0417 104.65 18.9629C104.464 18.8841 104.264 18.8447 104.049 18.8447H100.966C100.328 18.8447 99.7305 18.723 99.1719 18.4795C98.6133 18.236 98.1227 17.9066 97.7002 17.4912C97.2848 17.0687 96.9554 16.5781 96.7119 16.0195C96.4684 15.4538 96.3467 14.8522 96.3467 14.2148ZM116.95 25H113.878V12.6787H109.248V9.5957H121.569V12.6787H116.95V25ZM126.285 25H123.202V9.5957H126.285V25ZM141.453 23.4209C140.737 24.0368 139.935 24.5094 139.047 24.8389C138.159 25.1683 137.239 25.333 136.286 25.333C135.556 25.333 134.85 25.2363 134.17 25.043C133.497 24.8568 132.863 24.5918 132.269 24.248C131.681 23.8971 131.144 23.4782 130.657 22.9912C130.17 22.5042 129.751 21.9671 129.4 21.3799C129.057 20.7855 128.788 20.1517 128.595 19.4785C128.409 18.7982 128.315 18.0928 128.315 17.3623C128.315 16.6318 128.409 15.9264 128.595 15.2461C128.788 14.5658 129.057 13.932 129.4 13.3447C129.751 12.7503 130.17 12.2096 130.657 11.7227C131.144 11.2357 131.681 10.8203 132.269 10.4766C132.863 10.1257 133.497 9.8571 134.17 9.6709C134.85 9.47754 135.556 9.38086 136.286 9.38086C137.239 9.38086 138.159 9.54557 139.047 9.875C139.935 10.1973 140.737 10.6699 141.453 11.293L139.82 13.9785C139.369 13.4915 138.836 13.1191 138.22 12.8613C137.604 12.5964 136.959 12.4639 136.286 12.4639C135.606 12.4639 134.968 12.5928 134.374 12.8506C133.78 13.1084 133.26 13.4593 132.816 13.9033C132.372 14.3402 132.021 14.8594 131.764 15.4609C131.506 16.0553 131.377 16.6891 131.377 17.3623C131.377 18.0355 131.506 18.6693 131.764 19.2637C132.021 19.8509 132.372 20.3665 132.816 20.8105C133.26 21.2546 133.78 21.6055 134.374 21.8633C134.968 22.1211 135.606 22.25 136.286 22.25C136.959 22.25 137.604 22.1211 138.22 21.8633C138.836 21.5983 139.369 21.2223 139.82 20.7354L141.453 23.4209ZM142.151 14.2148C142.151 13.5775 142.273 12.9795 142.517 12.4209C142.76 11.8623 143.09 11.3753 143.505 10.96C143.927 10.5374 144.418 10.2044 144.977 9.96094C145.535 9.71745 146.133 9.5957 146.771 9.5957H153.839V12.6787H146.771C146.556 12.6787 146.355 12.7181 146.169 12.7969C145.983 12.8757 145.818 12.9867 145.675 13.1299C145.539 13.266 145.431 13.4271 145.353 13.6133C145.274 13.7995 145.234 14 145.234 14.2148C145.234 14.4297 145.274 14.6338 145.353 14.8271C145.431 15.0133 145.539 15.1781 145.675 15.3213C145.818 15.4574 145.983 15.5648 146.169 15.6436C146.355 15.7223 146.556 15.7617 146.771 15.7617H149.854C150.491 15.7617 151.089 15.8835 151.647 16.127C152.213 16.3633 152.704 16.6927 153.119 17.1152C153.542 17.5306 153.871 18.0212 154.107 18.5869C154.351 19.1455 154.473 19.7435 154.473 20.3809C154.473 21.0182 154.351 21.6162 154.107 22.1748C153.871 22.7334 153.542 23.224 153.119 23.6465C152.704 24.0618 152.213 24.3913 151.647 24.6348C151.089 24.8783 150.491 25 149.854 25H143.011V21.917H149.854C150.068 21.917 150.269 21.8776 150.455 21.7988C150.641 21.7201 150.802 21.6126 150.938 21.4766C151.082 21.3333 151.193 21.1686 151.271 20.9824C151.35 20.7962 151.39 20.5957 151.39 20.3809C151.39 20.166 151.35 19.9655 151.271 19.7793C151.193 19.5931 151.082 19.432 150.938 19.2959C150.802 19.1527 150.641 19.0417 150.455 18.9629C150.269 18.8841 150.068 18.8447 149.854 18.8447H146.771C146.133 18.8447 145.535 18.723 144.977 18.4795C144.418 18.236 143.927 17.9066 143.505 17.4912C143.09 17.0687 142.76 16.5781 142.517 16.0195C142.273 15.4538 142.151 14.8522 142.151 14.2148Z" fill="#AC87FF"/>
<path d="M173.44 23.3743C174.021 23.3743 174.538 23.8905 174.538 24.4713V24.5358C174.538 25.1166 174.021 25.6329 173.44 25.6329H169.82H168.463C167.881 25.6329 167.364 26.1491 167.364 26.7299V26.7944C167.364 27.3752 167.881 27.8914 168.463 27.8914H170.661H185.72C193.54 19.6961 196.061 9.43576 191.213 4.01522C191.019 3.7571 190.761 3.56351 190.502 3.30539H186.237H182.1H172.341C171.759 3.30539 171.242 3.82163 171.242 4.4024V4.46693C171.242 5.04771 171.759 5.56395 172.341 5.56395H180.355H183.393C183.975 5.56395 184.492 6.08019 184.492 6.66096V6.72549C184.492 7.30626 183.975 7.82251 183.393 7.82251H179.903H174.409C173.827 7.82251 173.31 8.33875 173.31 8.91952V8.98405C173.31 9.56482 173.827 10.0811 174.409 10.0811H179.45H187.723C188.305 10.0811 188.822 10.5973 188.822 11.1781V11.2426C188.822 11.8234 188.305 12.3396 187.723 12.3396H178.933H164.521C163.939 12.3396 163.422 12.8559 163.422 13.4366V13.5012C163.422 14.0819 163.939 14.5982 164.521 14.5982H172.599H174.021C174.603 14.5982 175.12 15.1144 175.12 15.6952V15.7597C175.12 16.3405 174.603 16.8567 174.021 16.8567H172.599H169.433C168.851 16.8567 168.334 17.373 168.334 17.9538V18.0183C168.334 18.5991 168.851 19.1153 169.433 19.1153H177.511H179.45C180.032 19.1153 180.549 19.6315 180.549 20.2123V20.0187C180.549 20.5995 180.032 21.1157 179.45 21.1157H176.994H163.099C162.517 21.1157 162 21.632 162 22.2127V22.2773C162 22.858 162.517 23.3743 163.099 23.3743H163.228H170.337H173.44ZM186.689 7.75798C186.043 7.75798 185.59 7.24173 185.59 6.66096C185.59 6.01566 186.107 5.56395 186.689 5.56395C187.335 5.56395 187.788 6.08019 187.788 6.66096C187.788 7.24173 187.335 7.75798 186.689 7.75798ZM184.298 20.0187C184.298 20.664 183.781 21.1157 183.199 21.1157C182.553 21.1157 182.1 20.5995 182.1 20.0187C182.1 19.3734 182.617 18.9217 183.199 18.9217C183.845 18.8572 184.298 19.3734 184.298 20.0187ZM177.835 16.6631C177.253 16.6631 176.736 16.1469 176.736 15.5661V15.5016C176.736 14.9208 177.253 14.4046 177.835 14.4046H181.389C181.971 14.4046 182.488 14.9208 182.488 15.5016V15.5661C182.488 16.1469 181.971 16.6631 181.389 16.6631H177.835Z" fill="url(#paint0_linear)"/>
<path d="M202.136 21.8255H198.129L201.813 4.53145C201.942 3.82162 201.489 3.24084 200.779 3.24084H193.604C193.863 3.43444 194.057 3.69256 194.315 3.95068C199.163 9.37122 196.642 19.6315 188.822 27.8269H200.908C201.619 27.8269 202.33 27.2461 202.459 26.5363L203.17 23.1162C203.299 22.4063 202.847 21.8255 202.136 21.8255Z" fill="url(#paint1_linear)"/>
<path d="M217.647 23.3743H217.389L218.1 20.0833C218.229 19.3734 218.1 18.2764 217.712 17.6311L213.058 9.30672C212.735 8.66141 211.83 8.14517 211.12 8.14517H202.33C201.619 8.14517 200.908 8.72594 200.779 9.43578L197.159 26.4718C197.03 27.1816 197.482 27.7624 198.193 27.7624H215.191C215.256 27.7624 215.256 27.7624 215.321 27.7624C215.385 27.7624 215.385 27.7624 215.45 27.7624H216.807C217.259 27.7624 217.777 27.3752 217.841 26.9235L218.423 24.2132C218.487 23.7615 218.164 23.3743 217.647 23.3743Z" fill="url(#paint2_linear)"/>
<path d="M214.933 17.3729C214.868 17.6956 214.416 18.0182 213.899 18.0182H203.041C202.589 18.0182 202.265 17.6311 202.33 17.1794L203.687 10.7909C203.817 10.3391 204.269 9.95197 204.721 9.95197H210.344C210.797 9.95197 211.378 10.2746 211.637 10.7263L214.61 16.0178C214.868 16.405 214.998 17.0503 214.933 17.3729Z" fill="white"/>
<path d="M211.055 27.8269C210.538 30.2145 208.211 32.1504 205.755 32.1504C203.364 32.1504 201.813 30.2145 202.33 27.8269C202.847 25.4392 205.174 23.5033 207.63 23.5033C210.021 23.5033 211.508 25.4392 211.055 27.8269Z" fill="url(#paint3_linear)"/>
<path d="M208.47 27.8268C208.276 28.7948 207.306 29.6337 206.272 29.6337C205.303 29.6337 204.656 28.7948 204.85 27.8268C205.044 26.8589 206.014 26.02 207.048 26.02C208.082 26.02 208.664 26.7944 208.47 27.8268Z" fill="white"/>
<path d="M184.039 27.8269C183.522 30.2145 181.195 32.1504 178.739 32.1504C176.348 32.1504 174.797 30.2145 175.314 27.8269C175.831 25.4392 178.158 23.5033 180.614 23.5033C183.005 23.5033 184.556 25.4392 184.039 27.8269Z" fill="url(#paint4_linear)"/>
<path d="M181.518 27.8268C181.325 28.7948 180.355 29.6337 179.321 29.6337C178.352 29.6337 177.705 28.7948 177.899 27.8268C178.093 26.8589 179.063 26.02 180.097 26.02C181.131 26.02 181.712 26.7944 181.518 27.8268Z" fill="white"/>
<path d="M188.951 29.0529C182.682 34.6671 175.249 37.5064 169.433 36.9256C174.603 36.4739 180.614 33.6991 185.849 29.0529C195.22 20.664 198.517 9.1131 193.281 3.30538C191.601 1.43401 189.145 0.336993 186.366 0.078872C190.438 -0.308309 194.057 0.724174 196.319 3.30538C201.684 9.1131 198.323 20.5995 188.951 29.0529Z" fill="url(#paint5_linear)"/>
<defs>
<linearGradient id="paint0_linear" x1="203.041" y1="15.5418" x2="160.814" y2="15.5418" gradientUnits="userSpaceOnUse">
<stop offset="0.1241" stop-color="#FE0600"/>
<stop offset="0.8621" stop-color="#FFB904"/>
</linearGradient>
<linearGradient id="paint1_linear" x1="189.072" y1="17.9954" x2="224.307" y2="7.51859" gradientUnits="userSpaceOnUse">
<stop stop-color="#9700F2"/>
<stop offset="1" stop-color="#3F7AFF"/>
</linearGradient>
<linearGradient id="paint2_linear" x1="190.73" y1="23.5712" x2="225.965" y2="13.0944" gradientUnits="userSpaceOnUse">
<stop stop-color="#9700F2"/>
<stop offset="1" stop-color="#3F7AFF"/>
</linearGradient>
<linearGradient id="paint3_linear" x1="193.181" y1="31.8125" x2="228.416" y2="21.3357" gradientUnits="userSpaceOnUse">
<stop stop-color="#9700F2"/>
<stop offset="1" stop-color="#3F7AFF"/>
</linearGradient>
<linearGradient id="paint4_linear" x1="203.041" y1="27.8125" x2="160.813" y2="27.8125" gradientUnits="userSpaceOnUse">
<stop offset="0.1241" stop-color="#FE0600"/>
<stop offset="0.8621" stop-color="#FFB904"/>
</linearGradient>
<linearGradient id="paint5_linear" x1="188.494" y1="16.0508" x2="223.729" y2="5.57412" gradientUnits="userSpaceOnUse">
<stop stop-color="#9700F2"/>
<stop offset="1" stop-color="#3F7AFF"/>
</linearGradient>
</defs>
</svg>
