<svg width="187" height="41" viewBox="0 0 187 41" fill="none" xmlns="http://www.w3.org/2000/svg">
<path d="M0.574219 14.2344C0.574219 13.5391 0.707031 12.8867 0.972656 12.2773C1.23828 11.668 1.59766 11.1367 2.05078 10.6836C2.51172 10.2227 3.04688 9.85938 3.65625 9.59375C4.26562 9.32812 4.91797 9.19531 5.61328 9.19531H13.3242V12.5586H5.61328C5.37891 12.5586 5.16016 12.6016 4.95703 12.6875C4.75391 12.7734 4.57422 12.8945 4.41797 13.0508C4.26953 13.1992 4.15234 13.375 4.06641 13.5781C3.98047 13.7812 3.9375 14 3.9375 14.2344C3.9375 14.4688 3.98047 14.6914 4.06641 14.9023C4.15234 15.1055 4.26953 15.2852 4.41797 15.4414C4.57422 15.5898 4.75391 15.707 4.95703 15.793C5.16016 15.8789 5.37891 15.9219 5.61328 15.9219H8.97656C9.67188 15.9219 10.3242 16.0547 10.9336 16.3203C11.5508 16.5781 12.0859 16.9375 12.5391 17.3984C13 17.8516 13.3594 18.3867 13.6172 19.0039C13.8828 19.6133 14.0156 20.2656 14.0156 20.9609C14.0156 21.6562 13.8828 22.3086 13.6172 22.918C13.3594 23.5273 13 24.0625 12.5391 24.5234C12.0859 24.9766 11.5508 25.3359 10.9336 25.6016C10.3242 25.8672 9.67188 26 8.97656 26H1.51172V22.6367H8.97656C9.21094 22.6367 9.42969 22.5938 9.63281 22.5078C9.83594 22.4219 10.0117 22.3047 10.1602 22.1562C10.3164 22 10.4375 21.8203 10.5234 21.6172C10.6094 21.4141 10.6523 21.1953 10.6523 20.9609C10.6523 20.7266 10.6094 20.5078 10.5234 20.3047C10.4375 20.1016 10.3164 19.9258 10.1602 19.7773C10.0117 19.6211 9.83594 19.5 9.63281 19.4141C9.42969 19.3281 9.21094 19.2852 8.97656 19.2852H5.61328C4.91797 19.2852 4.26562 19.1523 3.65625 18.8867C3.04688 18.6211 2.51172 18.2617 2.05078 17.8086C1.59766 17.3477 1.23828 16.8125 0.972656 16.2031C0.707031 15.5859 0.574219 14.9297 0.574219 14.2344ZM23.0508 26H19.6992V12.5586H14.6484V9.19531H28.0898V12.5586H23.0508V26ZM41.3906 26H29.8711V9.19531H41.3906V12.5586H33.2344V15.9219H38.7539V19.2852H33.2344V22.6367H41.3906V26ZM57.2109 17.5977C57.2109 18.3711 57.1094 19.1172 56.9062 19.8359C56.7109 20.5469 56.4297 21.2148 56.0625 21.8398C55.6953 22.457 55.2578 23.0234 54.75 23.5391C54.2422 24.0469 53.6758 24.4844 53.0508 24.8516C52.4258 25.2188 51.7539 25.5039 51.0352 25.707C50.3242 25.9023 49.582 26 48.8086 26H43.7461V9.19531H48.8086C49.582 9.19531 50.3242 9.29688 51.0352 9.5C51.7539 9.69531 52.4258 9.97656 53.0508 10.3438C53.6758 10.7109 54.2422 11.1523 54.75 11.668C55.2578 12.1758 55.6953 12.7422 56.0625 13.3672C56.4297 13.9844 56.7109 14.6523 56.9062 15.3711C57.1094 16.082 57.2109 16.8242 57.2109 17.5977ZM53.8477 17.5977C53.8477 16.9023 53.7148 16.25 53.4492 15.6406C53.1914 15.0312 52.832 14.5 52.3711 14.0469C51.918 13.5859 51.3828 13.2227 50.7656 12.957C50.1562 12.6914 49.5039 12.5586 48.8086 12.5586H47.1328V22.6367H48.8086C49.5039 22.6367 50.1562 22.5078 50.7656 22.25C51.3828 21.9844 51.918 21.625 52.3711 21.1719C52.832 20.7109 53.1914 20.1758 53.4492 19.5664C53.7148 18.9492 53.8477 18.293 53.8477 17.5977Z" fill="white"/>
<path d="M62.8125 26H59.4492V9.19531H71.2148V12.5586H62.8125V15.9219H67.8516V19.2852H62.8125V26ZM82.4648 19.2852V15.9219C82.4648 15.4609 82.375 15.0273 82.1953 14.6211C82.0234 14.207 81.7852 13.8477 81.4805 13.543C81.1758 13.2383 80.8164 13 80.4023 12.8281C79.9961 12.6484 79.5625 12.5586 79.1016 12.5586C78.6406 12.5586 78.2031 12.6484 77.7891 12.8281C77.3828 13 77.0273 13.2383 76.7227 13.543C76.418 13.8477 76.1758 14.207 75.9961 14.6211C75.8242 15.0273 75.7383 15.4609 75.7383 15.9219V19.2852H82.4648ZM85.8281 26H82.4648V22.6367H75.7383V26H72.3867V15.9219C72.3867 14.9922 72.5625 14.1211 72.9141 13.3086C73.2656 12.4883 73.7422 11.7734 74.3438 11.1641C74.9531 10.5547 75.6641 10.0742 76.4766 9.72266C77.2969 9.37109 78.1719 9.19531 79.1016 9.19531C80.0312 9.19531 80.9023 9.37109 81.7148 9.72266C82.5352 10.0742 83.25 10.5547 83.8594 11.1641C84.4688 11.7734 84.9492 12.4883 85.3008 13.3086C85.6523 14.1211 85.8281 14.9922 85.8281 15.9219V26ZM87.7617 14.2344C87.7617 13.5391 87.8945 12.8867 88.1602 12.2773C88.4258 11.668 88.7852 11.1367 89.2383 10.6836C89.6992 10.2227 90.2344 9.85938 90.8438 9.59375C91.4531 9.32812 92.1055 9.19531 92.8008 9.19531H100.512V12.5586H92.8008C92.5664 12.5586 92.3477 12.6016 92.1445 12.6875C91.9414 12.7734 91.7617 12.8945 91.6055 13.0508C91.457 13.1992 91.3398 13.375 91.2539 13.5781C91.168 13.7812 91.125 14 91.125 14.2344C91.125 14.4688 91.168 14.6914 91.2539 14.9023C91.3398 15.1055 91.457 15.2852 91.6055 15.4414C91.7617 15.5898 91.9414 15.707 92.1445 15.793C92.3477 15.8789 92.5664 15.9219 92.8008 15.9219H96.1641C96.8594 15.9219 97.5117 16.0547 98.1211 16.3203C98.7383 16.5781 99.2734 16.9375 99.7266 17.3984C100.188 17.8516 100.547 18.3867 100.805 19.0039C101.07 19.6133 101.203 20.2656 101.203 20.9609C101.203 21.6562 101.07 22.3086 100.805 22.918C100.547 23.5273 100.188 24.0625 99.7266 24.5234C99.2734 24.9766 98.7383 25.3359 98.1211 25.6016C97.5117 25.8672 96.8594 26 96.1641 26H88.6992V22.6367H96.1641C96.3984 22.6367 96.6172 22.5938 96.8203 22.5078C97.0234 22.4219 97.1992 22.3047 97.3477 22.1562C97.5039 22 97.625 21.8203 97.7109 21.6172C97.7969 21.4141 97.8398 21.1953 97.8398 20.9609C97.8398 20.7266 97.7969 20.5078 97.7109 20.3047C97.625 20.1016 97.5039 19.9258 97.3477 19.7773C97.1992 19.6211 97.0234 19.5 96.8203 19.4141C96.6172 19.3281 96.3984 19.2852 96.1641 19.2852H92.8008C92.1055 19.2852 91.4531 19.1523 90.8438 18.8867C90.2344 18.6211 89.6992 18.2617 89.2383 17.8086C88.7852 17.3477 88.4258 16.8125 88.1602 16.2031C87.8945 15.5859 87.7617 14.9297 87.7617 14.2344ZM110.473 26H107.121V12.5586H102.07V9.19531H115.512V12.5586H110.473V26ZM114.749 14.2344C114.749 13.5391 114.881 12.8867 115.147 12.2773C115.413 11.668 115.772 11.1367 116.225 10.6836C116.686 10.2227 117.221 9.85938 117.831 9.59375C118.44 9.32812 119.092 9.19531 119.788 9.19531H127.499V12.5586H119.788C119.553 12.5586 119.335 12.6016 119.131 12.6875C118.928 12.7734 118.749 12.8945 118.592 13.0508C118.444 13.1992 118.327 13.375 118.241 13.5781C118.155 13.7812 118.112 14 118.112 14.2344C118.112 14.4688 118.155 14.6914 118.241 14.9023C118.327 15.1055 118.444 15.2852 118.592 15.4414C118.749 15.5898 118.928 15.707 119.131 15.793C119.335 15.8789 119.553 15.9219 119.788 15.9219H123.151C123.846 15.9219 124.499 16.0547 125.108 16.3203C125.725 16.5781 126.26 16.9375 126.713 17.3984C127.174 17.8516 127.534 18.3867 127.792 19.0039C128.057 19.6133 128.19 20.2656 128.19 20.9609C128.19 21.6562 128.057 22.3086 127.792 22.918C127.534 23.5273 127.174 24.0625 126.713 24.5234C126.26 24.9766 125.725 25.3359 125.108 25.6016C124.499 25.8672 123.846 26 123.151 26H115.686V22.6367H123.151C123.385 22.6367 123.604 22.5938 123.807 22.5078C124.01 22.4219 124.186 22.3047 124.335 22.1562C124.491 22 124.612 21.8203 124.698 21.6172C124.784 21.4141 124.827 21.1953 124.827 20.9609C124.827 20.7266 124.784 20.5078 124.698 20.3047C124.612 20.1016 124.491 19.9258 124.335 19.7773C124.186 19.6211 124.01 19.5 123.807 19.4141C123.604 19.3281 123.385 19.2852 123.151 19.2852H119.788C119.092 19.2852 118.44 19.1523 117.831 18.8867C117.221 18.6211 116.686 18.2617 116.225 17.8086C115.772 17.3477 115.413 16.8125 115.147 16.2031C114.881 15.5859 114.749 14.9297 114.749 14.2344Z" fill="#AC87FF"/>
<path d="M141.44 23.3743C142.021 23.3743 142.538 23.8905 142.538 24.4713V24.5358C142.538 25.1166 142.021 25.6329 141.44 25.6329H137.82H136.463C135.881 25.6329 135.364 26.1491 135.364 26.7299V26.7944C135.364 27.3752 135.881 27.8914 136.463 27.8914H138.661H153.72C161.54 19.6961 164.061 9.43576 159.213 4.01522C159.019 3.7571 158.761 3.56351 158.502 3.30539H154.237H150.1H140.341C139.759 3.30539 139.242 3.82163 139.242 4.4024V4.46693C139.242 5.04771 139.759 5.56395 140.341 5.56395H148.355H151.393C151.975 5.56395 152.492 6.08019 152.492 6.66096V6.72549C152.492 7.30626 151.975 7.82251 151.393 7.82251H147.903H142.409C141.827 7.82251 141.31 8.33875 141.31 8.91952V8.98405C141.31 9.56482 141.827 10.0811 142.409 10.0811H147.45H155.723C156.305 10.0811 156.822 10.5973 156.822 11.1781V11.2426C156.822 11.8234 156.305 12.3396 155.723 12.3396H146.933H132.521C131.939 12.3396 131.422 12.8559 131.422 13.4366V13.5012C131.422 14.0819 131.939 14.5982 132.521 14.5982H140.599H142.021C142.603 14.5982 143.12 15.1144 143.12 15.6952V15.7597C143.12 16.3405 142.603 16.8567 142.021 16.8567H140.599H137.433C136.851 16.8567 136.334 17.373 136.334 17.9538V18.0183C136.334 18.5991 136.851 19.1153 137.433 19.1153H145.511H147.45C148.032 19.1153 148.549 19.6315 148.549 20.2123V20.0187C148.549 20.5995 148.032 21.1157 147.45 21.1157H144.994H131.099C130.517 21.1157 130 21.632 130 22.2127V22.2773C130 22.858 130.517 23.3743 131.099 23.3743H131.228H138.337H141.44V23.3743ZM154.689 7.75798C154.043 7.75798 153.59 7.24173 153.59 6.66096C153.59 6.01566 154.107 5.56395 154.689 5.56395C155.335 5.56395 155.788 6.08019 155.788 6.66096C155.788 7.24173 155.335 7.75798 154.689 7.75798ZM152.298 20.0187C152.298 20.664 151.781 21.1157 151.199 21.1157C150.553 21.1157 150.1 20.5995 150.1 20.0187C150.1 19.3734 150.617 18.9217 151.199 18.9217C151.845 18.8572 152.298 19.3734 152.298 20.0187ZM145.835 16.6631C145.253 16.6631 144.736 16.1469 144.736 15.5661V15.5016C144.736 14.9208 145.253 14.4046 145.835 14.4046H149.389C149.971 14.4046 150.488 14.9208 150.488 15.5016V15.5661C150.488 16.1469 149.971 16.6631 149.389 16.6631H145.835Z" fill="url(#paint0_linear)"/>
<path d="M170.136 21.8255H166.129L169.813 4.53145C169.942 3.82162 169.489 3.24084 168.779 3.24084H161.604C161.863 3.43444 162.057 3.69256 162.315 3.95068C167.163 9.37122 164.642 19.6315 156.822 27.8269H168.908C169.619 27.8269 170.33 27.2461 170.459 26.5363L171.17 23.1162C171.299 22.4063 170.847 21.8255 170.136 21.8255Z" fill="url(#paint1_linear)"/>
<path d="M185.647 23.3743H185.389L186.1 20.0833C186.229 19.3734 186.1 18.2764 185.712 17.6311L181.058 9.30672C180.735 8.66141 179.83 8.14517 179.12 8.14517H170.33C169.619 8.14517 168.908 8.72594 168.779 9.43578L165.159 26.4718C165.03 27.1816 165.482 27.7624 166.193 27.7624H183.191C183.256 27.7624 183.256 27.7624 183.321 27.7624C183.385 27.7624 183.385 27.7624 183.45 27.7624H184.807C185.259 27.7624 185.777 27.3752 185.841 26.9235L186.423 24.2132C186.487 23.7615 186.164 23.3743 185.647 23.3743Z" fill="url(#paint2_linear)"/>
<path d="M182.933 17.3729C182.868 17.6956 182.416 18.0182 181.899 18.0182H171.041C170.589 18.0182 170.265 17.6311 170.33 17.1794L171.687 10.7909C171.817 10.3391 172.269 9.95197 172.721 9.95197H178.344C178.797 9.95197 179.378 10.2746 179.637 10.7263L182.61 16.0178C182.868 16.405 182.998 17.0503 182.933 17.3729Z" fill="white"/>
<path d="M179.055 27.8269C178.538 30.2145 176.211 32.1504 173.755 32.1504C171.364 32.1504 169.813 30.2145 170.33 27.8269C170.847 25.4392 173.174 23.5033 175.63 23.5033C178.021 23.5033 179.508 25.4392 179.055 27.8269Z" fill="url(#paint3_linear)"/>
<path d="M176.47 27.8268C176.276 28.7948 175.306 29.6337 174.272 29.6337C173.303 29.6337 172.656 28.7948 172.85 27.8268C173.044 26.8589 174.014 26.02 175.048 26.02C176.082 26.02 176.664 26.7944 176.47 27.8268Z" fill="white"/>
<path d="M152.039 27.8269C151.522 30.2145 149.195 32.1504 146.739 32.1504C144.348 32.1504 142.797 30.2145 143.314 27.8269C143.831 25.4392 146.158 23.5033 148.614 23.5033C151.005 23.5033 152.556 25.4392 152.039 27.8269Z" fill="url(#paint4_linear)"/>
<path d="M149.518 27.8268C149.325 28.7948 148.355 29.6337 147.321 29.6337C146.352 29.6337 145.705 28.7948 145.899 27.8268C146.093 26.8589 147.063 26.02 148.097 26.02C149.131 26.02 149.712 26.7944 149.518 27.8268Z" fill="white"/>
<path d="M156.951 29.0529C150.682 34.6671 143.249 37.5064 137.433 36.9256C142.603 36.4739 148.614 33.6991 153.849 29.0529C163.22 20.664 166.517 9.1131 161.281 3.30538C159.601 1.43401 157.145 0.336993 154.366 0.0788719C158.438 -0.308309 162.057 0.724174 164.319 3.30538C169.684 9.1131 166.323 20.5995 156.951 29.0529Z" fill="url(#paint5_linear)"/>
<defs>
<linearGradient id="paint0_linear" x1="171.041" y1="15.5418" x2="128.814" y2="15.5418" gradientUnits="userSpaceOnUse">
<stop offset="0.1241" stop-color="#FE0600"/>
<stop offset="0.8621" stop-color="#FFB904"/>
</linearGradient>
<linearGradient id="paint1_linear" x1="157.072" y1="17.9954" x2="192.307" y2="7.51859" gradientUnits="userSpaceOnUse">
<stop stop-color="#9700F2"/>
<stop offset="1" stop-color="#3F7AFF"/>
</linearGradient>
<linearGradient id="paint2_linear" x1="158.73" y1="23.5712" x2="193.965" y2="13.0944" gradientUnits="userSpaceOnUse">
<stop stop-color="#9700F2"/>
<stop offset="1" stop-color="#3F7AFF"/>
</linearGradient>
<linearGradient id="paint3_linear" x1="161.181" y1="31.8125" x2="196.416" y2="21.3357" gradientUnits="userSpaceOnUse">
<stop stop-color="#9700F2"/>
<stop offset="1" stop-color="#3F7AFF"/>
</linearGradient>
<linearGradient id="paint4_linear" x1="171.041" y1="27.8125" x2="128.813" y2="27.8125" gradientUnits="userSpaceOnUse">
<stop offset="0.1241" stop-color="#FE0600"/>
<stop offset="0.8621" stop-color="#FFB904"/>
</linearGradient>
<linearGradient id="paint5_linear" x1="156.494" y1="16.0508" x2="191.729" y2="5.57412" gradientUnits="userSpaceOnUse">
<stop stop-color="#9700F2"/>
<stop offset="1" stop-color="#3F7AFF"/>
</linearGradient>
</defs>
</svg>
