<svg width="347" height="168" viewBox="0 0 347 168" fill="none" xmlns="http://www.w3.org/2000/svg">
<g clip-path="url(#clip0)">
<path d="M141.838 131.93C143.356 131.93 144.704 133.277 144.704 134.791V134.96C144.704 136.475 143.356 137.821 141.838 137.821H132.398H128.858C127.341 137.821 125.992 139.168 125.992 140.682V140.851C125.992 142.366 127.341 143.712 128.858 143.712H134.589H173.868C194.266 122.336 200.841 95.574 188.197 81.4355C187.692 80.7623 187.017 80.2573 186.343 79.5841H175.217H164.428H138.972C137.455 79.5841 136.107 80.9306 136.107 82.4454V82.6137C136.107 84.1286 137.455 85.4751 138.972 85.4751H159.876H167.799C169.317 85.4751 170.665 86.8216 170.665 88.3365V88.5048C170.665 90.0196 169.317 91.3661 167.799 91.3661H158.696H144.367C142.85 91.3661 141.501 92.7126 141.501 94.2275V94.3958C141.501 95.9106 142.85 97.2571 144.367 97.2571H157.516H179.094C180.611 97.2571 181.96 98.6037 181.96 100.118V100.287C181.96 101.802 180.611 103.148 179.094 103.148H156.167H118.575C117.057 103.148 115.709 104.495 115.709 106.01V106.178C115.709 107.693 117.057 109.039 118.575 109.039H139.647H143.356C144.873 109.039 146.221 110.386 146.221 111.901V112.069C146.221 113.584 144.873 114.93 143.356 114.93H139.647H131.386C129.869 114.93 128.521 116.277 128.521 117.792V117.96C128.521 119.475 129.869 120.821 131.386 120.821H152.459H157.516C159.033 120.821 160.382 122.168 160.382 123.683V123.178C160.382 124.692 159.033 126.039 157.516 126.039H151.11H114.866C113.349 126.039 112 127.386 112 128.9V129.069C112 130.583 113.349 131.93 114.866 131.93H115.203H133.747H141.838V131.93ZM176.397 91.1978C174.711 91.1978 173.531 89.8513 173.531 88.3365C173.531 86.6533 174.88 85.4751 176.397 85.4751C178.083 85.4751 179.263 86.8216 179.263 88.3365C179.263 89.8513 178.083 91.1978 176.397 91.1978ZM170.159 123.178C170.159 124.861 168.811 126.039 167.294 126.039C165.608 126.039 164.428 124.692 164.428 123.178C164.428 121.494 165.776 120.316 167.294 120.316C168.979 120.148 170.159 121.494 170.159 123.178ZM153.302 114.425C151.784 114.425 150.436 113.079 150.436 111.564V111.396C150.436 109.881 151.784 108.534 153.302 108.534H162.573C164.091 108.534 165.439 109.881 165.439 111.396V111.564C165.439 113.079 164.091 114.425 162.573 114.425H153.302Z" fill="url(#paint0_linear)"/>
<path d="M216.687 127.89H206.235L215.844 82.782C216.181 80.9306 215.001 79.4157 213.147 79.4157H194.435C195.109 79.9207 195.615 80.5939 196.289 81.2672C208.932 95.4057 202.358 122.168 181.96 143.544H213.484C215.338 143.544 217.193 142.029 217.53 140.177L219.384 131.257C219.721 129.405 218.541 127.89 216.687 127.89Z" fill="url(#paint1_linear)"/>
<path d="M257.146 131.93H256.471L258.326 123.346C258.663 121.494 258.326 118.633 257.314 116.95L245.177 95.2374C244.334 93.5542 241.974 92.2077 240.119 92.2077H217.193C215.338 92.2077 213.484 93.7225 213.147 95.574L203.706 140.009C203.369 141.861 204.549 143.375 206.404 143.375H250.74C250.908 143.375 250.908 143.375 251.077 143.375C251.245 143.375 251.245 143.375 251.414 143.375H254.954C256.134 143.375 257.483 142.366 257.651 141.187L259.169 134.118C259.337 132.94 258.494 131.93 257.146 131.93Z" fill="url(#paint2_linear)"/>
<path d="M250.065 116.277C249.897 117.118 248.717 117.96 247.368 117.96H219.047C217.867 117.96 217.024 116.95 217.193 115.772L220.733 99.1086C221.07 97.9304 222.25 96.9205 223.43 96.9205H238.096C239.276 96.9205 240.794 97.7621 241.468 98.9403L249.222 112.742C249.897 113.752 250.234 115.435 250.065 116.277Z" fill="white"/>
<path d="M239.951 143.544C238.602 149.771 232.533 154.821 226.127 154.821C219.89 154.821 215.844 149.771 217.193 143.544C218.541 137.316 224.61 132.267 231.016 132.267C237.253 132.267 241.131 137.316 239.951 143.544Z" fill="url(#paint3_linear)"/>
<path d="M233.208 143.544C232.702 146.068 230.173 148.257 227.476 148.257C224.947 148.257 223.261 146.068 223.767 143.544C224.273 141.019 226.802 138.831 229.499 138.831C232.196 138.831 233.713 140.851 233.208 143.544Z" fill="white"/>
<path d="M169.485 143.544C168.136 149.771 162.068 154.821 155.662 154.821C149.424 154.821 145.378 149.771 146.727 143.544C148.076 137.316 154.144 132.267 160.55 132.267C166.788 132.267 170.834 137.316 169.485 143.544Z" fill="url(#paint4_linear)"/>
<path d="M162.911 143.544C162.405 146.068 159.876 148.257 157.179 148.257C154.65 148.257 152.964 146.068 153.47 143.544C153.976 141.019 156.505 138.831 159.202 138.831C161.899 138.831 163.416 140.851 162.911 143.544Z" fill="white"/>
<path d="M182.297 146.742C165.945 161.385 146.558 168.791 131.386 167.276C144.873 166.098 160.55 158.86 174.205 146.742C198.649 124.861 207.247 94.7324 193.592 79.5841C189.209 74.7029 182.803 71.8416 175.554 71.1683C186.174 70.1584 195.615 72.8515 201.515 79.5841C215.507 94.7324 206.741 124.692 182.297 146.742Z" fill="url(#paint5_linear)"/>
</g>
<path d="M1.53125 31.625C1.53125 29.7708 1.88542 28.0312 2.59375 26.4062C3.30208 24.7812 4.26042 23.3646 5.46875 22.1562C6.69792 20.9271 8.125 19.9583 9.75 19.25C11.375 18.5417 13.1146 18.1875 14.9688 18.1875H35.5312V27.1562H14.9688C14.3438 27.1562 13.7604 27.2708 13.2188 27.5C12.6771 27.7292 12.1979 28.0521 11.7812 28.4688C11.3854 28.8646 11.0729 29.3333 10.8438 29.875C10.6146 30.4167 10.5 31 10.5 31.625C10.5 32.25 10.6146 32.8438 10.8438 33.4062C11.0729 33.9479 11.3854 34.4271 11.7812 34.8438C12.1979 35.2396 12.6771 35.5521 13.2188 35.7812C13.7604 36.0104 14.3438 36.125 14.9688 36.125H23.9375C25.7917 36.125 27.5312 36.4792 29.1562 37.1875C30.8021 37.875 32.2292 38.8333 33.4375 40.0625C34.6667 41.2708 35.625 42.6979 36.3125 44.3438C37.0208 45.9688 37.375 47.7083 37.375 49.5625C37.375 51.4167 37.0208 53.1562 36.3125 54.7812C35.625 56.4062 34.6667 57.8333 33.4375 59.0625C32.2292 60.2708 30.8021 61.2292 29.1562 61.9375C27.5312 62.6458 25.7917 63 23.9375 63H4.03125V54.0312H23.9375C24.5625 54.0312 25.1458 53.9167 25.6875 53.6875C26.2292 53.4583 26.6979 53.1458 27.0938 52.75C27.5104 52.3333 27.8333 51.8542 28.0625 51.3125C28.2917 50.7708 28.4062 50.1875 28.4062 49.5625C28.4062 48.9375 28.2917 48.3542 28.0625 47.8125C27.8333 47.2708 27.5104 46.8021 27.0938 46.4062C26.6979 45.9896 26.2292 45.6667 25.6875 45.4375C25.1458 45.2083 24.5625 45.0938 23.9375 45.0938H14.9688C13.1146 45.0938 11.375 44.7396 9.75 44.0312C8.125 43.3229 6.69792 42.3646 5.46875 41.1562C4.26042 39.9271 3.30208 38.5 2.59375 36.875C1.88542 35.2292 1.53125 33.4792 1.53125 31.625ZM61.4688 63H52.5312V27.1562H39.0625V18.1875H74.9062V27.1562H61.4688V63ZM110.375 63H79.6562V18.1875H110.375V27.1562H88.625V36.125H103.344V45.0938H88.625V54.0312H110.375V63ZM152.562 40.5938C152.562 42.6562 152.292 44.6458 151.75 46.5625C151.229 48.4583 150.479 50.2396 149.5 51.9062C148.521 53.5521 147.354 55.0625 146 56.4375C144.646 57.7917 143.135 58.9583 141.469 59.9375C139.802 60.9167 138.01 61.6771 136.094 62.2188C134.198 62.7396 132.219 63 130.156 63H116.656V18.1875H130.156C132.219 18.1875 134.198 18.4583 136.094 19C138.01 19.5208 139.802 20.2708 141.469 21.25C143.135 22.2292 144.646 23.4062 146 24.7812C147.354 26.1354 148.521 27.6458 149.5 29.3125C150.479 30.9583 151.229 32.7396 151.75 34.6562C152.292 36.5521 152.562 38.5312 152.562 40.5938ZM143.594 40.5938C143.594 38.7396 143.24 37 142.531 35.375C141.844 33.75 140.885 32.3333 139.656 31.125C138.448 29.8958 137.021 28.9271 135.375 28.2188C133.75 27.5104 132.01 27.1562 130.156 27.1562H125.688V54.0312H130.156C132.01 54.0312 133.75 53.6875 135.375 53C137.021 52.2917 138.448 51.3333 139.656 50.125C140.885 48.8958 141.844 47.4688 142.531 45.8438C143.24 44.1979 143.594 42.4479 143.594 40.5938ZM167.5 63H158.531V18.1875H189.906V27.1562H167.5V36.125H180.938V45.0938H167.5V63ZM219.906 45.0938V36.125C219.906 34.8958 219.667 33.7396 219.188 32.6562C218.729 31.5521 218.094 30.5938 217.281 29.7812C216.469 28.9688 215.51 28.3333 214.406 27.875C213.323 27.3958 212.167 27.1562 210.938 27.1562C209.708 27.1562 208.542 27.3958 207.438 27.875C206.354 28.3333 205.406 28.9688 204.594 29.7812C203.781 30.5938 203.135 31.5521 202.656 32.6562C202.198 33.7396 201.969 34.8958 201.969 36.125V45.0938H219.906ZM228.875 63H219.906V54.0312H201.969V63H193.031V36.125C193.031 33.6458 193.5 31.3229 194.438 29.1562C195.375 26.9688 196.646 25.0625 198.25 23.4375C199.875 21.8125 201.771 20.5312 203.938 19.5938C206.125 18.6562 208.458 18.1875 210.938 18.1875C213.417 18.1875 215.74 18.6562 217.906 19.5938C220.094 20.5312 222 21.8125 223.625 23.4375C225.25 25.0625 226.531 26.9688 227.469 29.1562C228.406 31.3229 228.875 33.6458 228.875 36.125V63ZM234.031 31.625C234.031 29.7708 234.385 28.0312 235.094 26.4062C235.802 24.7812 236.76 23.3646 237.969 22.1562C239.198 20.9271 240.625 19.9583 242.25 19.25C243.875 18.5417 245.615 18.1875 247.469 18.1875H268.031V27.1562H247.469C246.844 27.1562 246.26 27.2708 245.719 27.5C245.177 27.7292 244.698 28.0521 244.281 28.4688C243.885 28.8646 243.573 29.3333 243.344 29.875C243.115 30.4167 243 31 243 31.625C243 32.25 243.115 32.8438 243.344 33.4062C243.573 33.9479 243.885 34.4271 244.281 34.8438C244.698 35.2396 245.177 35.5521 245.719 35.7812C246.26 36.0104 246.844 36.125 247.469 36.125H256.438C258.292 36.125 260.031 36.4792 261.656 37.1875C263.302 37.875 264.729 38.8333 265.938 40.0625C267.167 41.2708 268.125 42.6979 268.812 44.3438C269.521 45.9688 269.875 47.7083 269.875 49.5625C269.875 51.4167 269.521 53.1562 268.812 54.7812C268.125 56.4062 267.167 57.8333 265.938 59.0625C264.729 60.2708 263.302 61.2292 261.656 61.9375C260.031 62.6458 258.292 63 256.438 63H236.531V54.0312H256.438C257.062 54.0312 257.646 53.9167 258.188 53.6875C258.729 53.4583 259.198 53.1458 259.594 52.75C260.01 52.3333 260.333 51.8542 260.562 51.3125C260.792 50.7708 260.906 50.1875 260.906 49.5625C260.906 48.9375 260.792 48.3542 260.562 47.8125C260.333 47.2708 260.01 46.8021 259.594 46.4062C259.198 45.9896 258.729 45.6667 258.188 45.4375C257.646 45.2083 257.062 45.0938 256.438 45.0938H247.469C245.615 45.0938 243.875 44.7396 242.25 44.0312C240.625 43.3229 239.198 42.3646 237.969 41.1562C236.76 39.9271 235.802 38.5 235.094 36.875C234.385 35.2292 234.031 33.4792 234.031 31.625ZM293.969 63H285.031V27.1562H271.562V18.1875H307.406V27.1562H293.969V63ZM309.219 31.625C309.219 29.7708 309.573 28.0312 310.281 26.4062C310.99 24.7812 311.948 23.3646 313.156 22.1562C314.385 20.9271 315.812 19.9583 317.438 19.25C319.062 18.5417 320.802 18.1875 322.656 18.1875H343.219V27.1562H322.656C322.031 27.1562 321.448 27.2708 320.906 27.5C320.365 27.7292 319.885 28.0521 319.469 28.4688C319.073 28.8646 318.76 29.3333 318.531 29.875C318.302 30.4167 318.188 31 318.188 31.625C318.188 32.25 318.302 32.8438 318.531 33.4062C318.76 33.9479 319.073 34.4271 319.469 34.8438C319.885 35.2396 320.365 35.5521 320.906 35.7812C321.448 36.0104 322.031 36.125 322.656 36.125H331.625C333.479 36.125 335.219 36.4792 336.844 37.1875C338.49 37.875 339.917 38.8333 341.125 40.0625C342.354 41.2708 343.312 42.6979 344 44.3438C344.708 45.9688 345.062 47.7083 345.062 49.5625C345.062 51.4167 344.708 53.1562 344 54.7812C343.312 56.4062 342.354 57.8333 341.125 59.0625C339.917 60.2708 338.49 61.2292 336.844 61.9375C335.219 62.6458 333.479 63 331.625 63H311.719V54.0312H331.625C332.25 54.0312 332.833 53.9167 333.375 53.6875C333.917 53.4583 334.385 53.1458 334.781 52.75C335.198 52.3333 335.521 51.8542 335.75 51.3125C335.979 50.7708 336.094 50.1875 336.094 49.5625C336.094 48.9375 335.979 48.3542 335.75 47.8125C335.521 47.2708 335.198 46.8021 334.781 46.4062C334.385 45.9896 333.917 45.6667 333.375 45.4375C332.833 45.2083 332.25 45.0938 331.625 45.0938H322.656C320.802 45.0938 319.062 44.7396 317.438 44.0312C315.812 43.3229 314.385 42.3646 313.156 41.1562C311.948 39.9271 310.99 38.5 310.281 36.875C309.573 35.2292 309.219 33.4792 309.219 31.625Z" fill="white"/>
<path d="M13.125 142H4.15625V97.1875H13.125V142ZM57.3125 142H47.7188L30.4375 112.5V142H21.4688V97.1875H31.0625L48.3438 126.719V97.1875H57.3125V142ZM101.438 137.406C99.3542 139.198 97.0208 140.573 94.4375 141.531C91.8542 142.49 89.1771 142.969 86.4062 142.969C84.2812 142.969 82.2292 142.688 80.25 142.125C78.2917 141.583 76.4479 140.812 74.7188 139.812C73.0104 138.792 71.4479 137.573 70.0312 136.156C68.6146 134.74 67.3958 133.177 66.375 131.469C65.375 129.74 64.5938 127.896 64.0312 125.938C63.4896 123.958 63.2188 121.906 63.2188 119.781C63.2188 117.656 63.4896 115.604 64.0312 113.625C64.5938 111.646 65.375 109.802 66.375 108.094C67.3958 106.365 68.6146 104.792 70.0312 103.375C71.4479 101.958 73.0104 100.75 74.7188 99.75C76.4479 98.7292 78.2917 97.9479 80.25 97.4062C82.2292 96.8438 84.2812 96.5625 86.4062 96.5625C89.1771 96.5625 91.8542 97.0417 94.4375 98C97.0208 98.9375 99.3542 100.312 101.438 102.125L96.6875 109.938C95.375 108.521 93.8229 107.438 92.0312 106.688C90.2396 105.917 88.3646 105.531 86.4062 105.531C84.4271 105.531 82.5729 105.906 80.8438 106.656C79.1146 107.406 77.6042 108.427 76.3125 109.719C75.0208 110.99 74 112.5 73.25 114.25C72.5 115.979 72.125 117.823 72.125 119.781C72.125 121.74 72.5 123.583 73.25 125.312C74 127.021 75.0208 128.521 76.3125 129.812C77.6042 131.104 79.1146 132.125 80.8438 132.875C82.5729 133.625 84.4271 134 86.4062 134C88.3646 134 90.2396 133.625 92.0312 132.875C93.8229 132.104 95.375 131.01 96.6875 129.594L101.438 137.406Z" fill="#FFD336"/>
<defs>
<linearGradient id="paint0_linear" x1="219.047" y1="111.5" x2="108.905" y2="111.5" gradientUnits="userSpaceOnUse">
<stop offset="0.1241" stop-color="#FE0600"/>
<stop offset="0.8621" stop-color="#FFB904"/>
</linearGradient>
<linearGradient id="paint1_linear" x1="182.613" y1="117.9" x2="274.517" y2="90.5734" gradientUnits="userSpaceOnUse">
<stop stop-color="#F2002C"/>
<stop offset="1" stop-color="#3F7AFF"/>
</linearGradient>
<linearGradient id="paint2_linear" x1="186.938" y1="132.444" x2="278.842" y2="105.117" gradientUnits="userSpaceOnUse">
<stop stop-color="#EE4A17"/>
<stop offset="1" stop-color="#D238A7"/>
<stop offset="1" stop-color="#FFD53F"/>
</linearGradient>
<linearGradient id="paint3_linear" x1="193.329" y1="153.94" x2="285.234" y2="126.613" gradientUnits="userSpaceOnUse">
<stop stop-color="#9700F2"/>
<stop offset="1" stop-color="#3F7AFF"/>
</linearGradient>
<linearGradient id="paint4_linear" x1="219.047" y1="143.506" x2="108.905" y2="143.506" gradientUnits="userSpaceOnUse">
<stop offset="0.1241" stop-color="#FE0600"/>
<stop offset="0.8621" stop-color="#FFB904"/>
</linearGradient>
<linearGradient id="paint5_linear" x1="181.105" y1="112.828" x2="273.009" y2="85.5016" gradientUnits="userSpaceOnUse">
<stop stop-color="#F25700"/>
<stop offset="1" stop-color="#FFF73F"/>
</linearGradient>
<clipPath id="clip0">
<rect width="147" height="96.4444" fill="white" transform="translate(112 71)"/>
</clipPath>
</defs>
</svg>
