<svg width="317" height="170" viewBox="0 0 317 170" fill="none" xmlns="http://www.w3.org/2000/svg">
<g clip-path="url(#clip0)">
<path d="M158.838 60.93C160.356 60.93 161.704 62.2766 161.704 63.7914V63.9597C161.704 65.4746 160.356 66.8211 158.838 66.8211H149.398H145.858C144.341 66.8211 142.992 68.1676 142.992 69.6824V69.8507C142.992 71.3656 144.341 72.7121 145.858 72.7121H151.589H190.868C211.266 51.3361 217.841 24.574 205.197 10.4356C204.692 9.76231 204.017 9.25737 203.343 8.58411H192.217H181.428H155.972C154.455 8.58411 153.107 9.93063 153.107 11.4455V11.6138C153.107 13.1286 154.455 14.4751 155.972 14.4751H176.876H184.799C186.317 14.4751 187.665 15.8216 187.665 17.3365V17.5048C187.665 19.0196 186.317 20.3662 184.799 20.3662H175.696H161.367C159.85 20.3662 158.501 21.7127 158.501 23.2275V23.3958C158.501 24.9107 159.85 26.2572 161.367 26.2572H174.516H196.094C197.611 26.2572 198.96 27.6037 198.96 29.1185V29.2868C198.96 30.8017 197.611 32.1482 196.094 32.1482H173.167H135.575C134.057 32.1482 132.709 33.4947 132.709 35.0095V35.1779C132.709 36.6927 134.057 38.0392 135.575 38.0392H156.647H160.356C161.873 38.0392 163.221 39.3857 163.221 40.9006V41.0689C163.221 42.5837 161.873 43.9302 160.356 43.9302H156.647H148.386C146.869 43.9302 145.521 45.2768 145.521 46.7916V46.9599C145.521 48.4747 146.869 49.8213 148.386 49.8213H169.459H174.516C176.033 49.8213 177.382 51.1678 177.382 52.6826V52.1777C177.382 53.6925 176.033 55.039 174.516 55.039H168.11H131.866C130.349 55.039 129 56.3855 129 57.9004V58.0687C129 59.5835 130.349 60.93 131.866 60.93H132.203H150.747H158.838ZM193.397 20.1978C191.711 20.1978 190.531 18.8513 190.531 17.3365C190.531 15.6533 191.88 14.4751 193.397 14.4751C195.083 14.4751 196.263 15.8216 196.263 17.3365C196.263 18.8513 195.083 20.1978 193.397 20.1978ZM187.159 52.1777C187.159 53.8608 185.811 55.039 184.294 55.039C182.608 55.039 181.428 53.6925 181.428 52.1777C181.428 50.4945 182.776 49.3163 184.294 49.3163C185.979 49.148 187.159 50.4945 187.159 52.1777ZM170.302 43.4253C168.784 43.4253 167.436 42.0788 167.436 40.5639V40.3956C167.436 38.8808 168.784 37.5343 170.302 37.5343H179.573C181.091 37.5343 182.439 38.8808 182.439 40.3956V40.5639C182.439 42.0788 181.091 43.4253 179.573 43.4253H170.302Z" fill="url(#paint0_linear)"/>
<path d="M233.687 56.8904H223.235L232.844 11.782C233.181 9.93054 232.001 8.41571 230.147 8.41571H211.435C212.109 8.92066 212.615 9.59391 213.289 10.2672C225.932 24.4056 219.358 51.1677 198.96 72.5437H230.484C232.338 72.5437 234.193 71.0289 234.53 69.1774L236.384 60.2567C236.721 58.4052 235.541 56.8904 233.687 56.8904Z" fill="url(#paint1_linear)"/>
<path d="M274.146 60.93H273.471L275.326 52.346C275.663 50.4945 275.326 47.6331 274.314 45.95L262.177 24.2374C261.334 22.5542 258.974 21.2077 257.119 21.2077H234.193C232.338 21.2077 230.484 22.7225 230.147 24.574L220.706 69.0091C220.369 70.8606 221.549 72.3754 223.404 72.3754H267.74C267.908 72.3754 267.908 72.3754 268.077 72.3754C268.245 72.3754 268.245 72.3754 268.414 72.3754H271.954C273.134 72.3754 274.483 71.3655 274.651 70.1873L276.169 63.1181C276.337 61.9399 275.494 60.93 274.146 60.93Z" fill="url(#paint2_linear)"/>
<path d="M267.065 45.2767C266.897 46.1183 265.717 46.9599 264.368 46.9599H236.047C234.867 46.9599 234.024 45.95 234.193 44.7718L237.733 28.1086C238.07 26.9304 239.25 25.9205 240.43 25.9205H255.096C256.276 25.9205 257.794 26.7621 258.468 27.9403L266.222 41.7421C266.897 42.752 267.234 44.4352 267.065 45.2767Z" fill="white"/>
<path d="M256.951 72.5437C255.602 78.7714 249.533 83.8208 243.127 83.8208C236.89 83.8208 232.844 78.7714 234.193 72.5437C235.541 66.3161 241.61 61.2666 248.016 61.2666C254.253 61.2666 258.131 66.3161 256.951 72.5437Z" fill="url(#paint3_linear)"/>
<path d="M250.208 72.5437C249.702 75.0684 247.173 77.2565 244.476 77.2565C241.947 77.2565 240.261 75.0684 240.767 72.5437C241.273 70.019 243.802 67.8309 246.499 67.8309C249.196 67.8309 250.713 69.8507 250.208 72.5437Z" fill="white"/>
<path d="M186.485 72.5437C185.136 78.7714 179.068 83.8208 172.662 83.8208C166.424 83.8208 162.378 78.7714 163.727 72.5437C165.076 66.3161 171.144 61.2666 177.55 61.2666C183.788 61.2666 187.834 66.3161 186.485 72.5437Z" fill="url(#paint4_linear)"/>
<path d="M179.911 72.5437C179.405 75.0684 176.876 77.2565 174.179 77.2565C171.65 77.2565 169.964 75.0684 170.47 72.5437C170.976 70.019 173.505 67.8309 176.202 67.8309C178.899 67.8309 180.416 69.8507 179.911 72.5437Z" fill="white"/>
<path d="M199.297 75.7417C182.945 90.3851 163.558 97.791 148.386 96.2761C161.873 95.0979 177.55 87.8604 191.205 75.7417C215.649 53.8608 224.247 23.7324 210.592 8.58405C206.209 3.70292 199.803 0.841568 192.554 0.168308C203.174 -0.841581 212.615 1.85146 218.515 8.58405C232.507 23.7324 223.741 53.6924 199.297 75.7417Z" fill="url(#paint5_linear)"/>
</g>
<path d="M1.53125 43.625C1.53125 41.7708 1.88542 40.0312 2.59375 38.4062C3.30208 36.7812 4.26042 35.3646 5.46875 34.1562C6.69792 32.9271 8.125 31.9583 9.75 31.25C11.375 30.5417 13.1146 30.1875 14.9688 30.1875H35.5312V39.1562H14.9688C14.3438 39.1562 13.7604 39.2708 13.2188 39.5C12.6771 39.7292 12.1979 40.0521 11.7812 40.4688C11.3854 40.8646 11.0729 41.3333 10.8438 41.875C10.6146 42.4167 10.5 43 10.5 43.625C10.5 44.25 10.6146 44.8438 10.8438 45.4062C11.0729 45.9479 11.3854 46.4271 11.7812 46.8438C12.1979 47.2396 12.6771 47.5521 13.2188 47.7812C13.7604 48.0104 14.3438 48.125 14.9688 48.125H23.9375C25.7917 48.125 27.5312 48.4792 29.1562 49.1875C30.8021 49.875 32.2292 50.8333 33.4375 52.0625C34.6667 53.2708 35.625 54.6979 36.3125 56.3438C37.0208 57.9688 37.375 59.7083 37.375 61.5625C37.375 63.4167 37.0208 65.1562 36.3125 66.7812C35.625 68.4062 34.6667 69.8333 33.4375 71.0625C32.2292 72.2708 30.8021 73.2292 29.1562 73.9375C27.5312 74.6458 25.7917 75 23.9375 75H4.03125V66.0312H23.9375C24.5625 66.0312 25.1458 65.9167 25.6875 65.6875C26.2292 65.4583 26.6979 65.1458 27.0938 64.75C27.5104 64.3333 27.8333 63.8542 28.0625 63.3125C28.2917 62.7708 28.4062 62.1875 28.4062 61.5625C28.4062 60.9375 28.2917 60.3542 28.0625 59.8125C27.8333 59.2708 27.5104 58.8021 27.0938 58.4062C26.6979 57.9896 26.2292 57.6667 25.6875 57.4375C25.1458 57.2083 24.5625 57.0938 23.9375 57.0938H14.9688C13.1146 57.0938 11.375 56.7396 9.75 56.0312C8.125 55.3229 6.69792 54.3646 5.46875 53.1562C4.26042 51.9271 3.30208 50.5 2.59375 48.875C1.88542 47.2292 1.53125 45.4792 1.53125 43.625ZM61.4688 75H52.5312V39.1562H39.0625V30.1875H74.9062V39.1562H61.4688V75ZM88.625 39.1562V57.0938H97.5938C98.8229 57.0938 99.9792 56.8646 101.062 56.4062C102.146 55.9271 103.094 55.2812 103.906 54.4688C104.719 53.6562 105.354 52.7083 105.812 51.625C106.292 50.5208 106.531 49.3542 106.531 48.125C106.531 46.8958 106.292 45.7396 105.812 44.6562C105.354 43.5521 104.719 42.5938 103.906 41.7812C103.094 40.9688 102.146 40.3333 101.062 39.875C99.9792 39.3958 98.8229 39.1562 97.5938 39.1562H88.625ZM88.625 75H79.6562V30.1875H97.5938C99.2396 30.1875 100.823 30.4062 102.344 30.8438C103.865 31.2604 105.281 31.8646 106.594 32.6562C107.927 33.4271 109.135 34.3646 110.219 35.4688C111.323 36.5521 112.26 37.7604 113.031 39.0938C113.823 40.4271 114.427 41.8542 114.844 43.375C115.281 44.8958 115.5 46.4792 115.5 48.125C115.5 50.5833 115.031 52.9062 114.094 55.0938C113.156 57.2604 111.875 59.1562 110.25 60.7812C108.625 62.4062 106.719 63.6875 104.531 64.625C102.365 65.5625 100.052 66.0312 97.5938 66.0312H88.625V75Z" fill="white"/>
<path d="M35.5312 154H4.15625V109.188H13.125V145.031H35.5312V154ZM82.5625 131.781C82.5625 133.906 82.2812 135.958 81.7188 137.938C81.1771 139.896 80.4062 141.74 79.4062 143.469C78.4062 145.177 77.1979 146.74 75.7812 148.156C74.3646 149.573 72.8021 150.792 71.0938 151.812C69.3854 152.812 67.5417 153.583 65.5625 154.125C63.5833 154.688 61.5312 154.969 59.4062 154.969C57.2812 154.969 55.2292 154.688 53.25 154.125C51.2917 153.583 49.4479 152.812 47.7188 151.812C46.0104 150.792 44.4479 149.573 43.0312 148.156C41.6146 146.74 40.3958 145.177 39.375 143.469C38.375 141.74 37.5938 139.896 37.0312 137.938C36.4896 135.958 36.2188 133.906 36.2188 131.781C36.2188 129.656 36.4896 127.604 37.0312 125.625C37.5938 123.646 38.375 121.802 39.375 120.094C40.3958 118.385 41.6146 116.823 43.0312 115.406C44.4479 113.99 46.0104 112.781 47.7188 111.781C49.4479 110.781 51.2917 110.01 53.25 109.469C55.2292 108.906 57.2812 108.625 59.4062 108.625C61.5312 108.625 63.5833 108.906 65.5625 109.469C67.5417 110.01 69.3854 110.781 71.0938 111.781C72.8021 112.781 74.3646 113.99 75.7812 115.406C77.1979 116.823 78.4062 118.385 79.4062 120.094C80.4062 121.802 81.1771 123.646 81.7188 125.625C82.2812 127.604 82.5625 129.656 82.5625 131.781ZM73.6562 131.781C73.6562 129.823 73.2812 127.979 72.5312 126.25C71.7812 124.5 70.7604 122.99 69.4688 121.719C68.1979 120.427 66.6875 119.406 64.9375 118.656C63.2083 117.906 61.3646 117.531 59.4062 117.531C57.4271 117.531 55.5729 117.906 53.8438 118.656C52.1146 119.406 50.6042 120.427 49.3125 121.719C48.0208 122.99 47 124.5 46.25 126.25C45.5 127.979 45.125 129.823 45.125 131.781C45.125 133.74 45.5 135.583 46.25 137.312C47 139.021 48.0208 140.521 49.3125 141.812C50.6042 143.104 52.1146 144.125 53.8438 144.875C55.5729 145.625 57.4271 146 59.4062 146C61.3646 146 63.2083 145.625 64.9375 144.875C66.6875 144.125 68.1979 143.104 69.4688 141.812C70.7604 140.521 71.7812 139.021 72.5312 137.312C73.2812 135.583 73.6562 133.74 73.6562 131.781ZM124.125 149.469C122.042 151.24 119.719 152.604 117.156 153.562C114.594 154.5 111.927 154.969 109.156 154.969C107.031 154.969 104.979 154.688 103 154.125C101.042 153.583 99.2083 152.812 97.5 151.812C95.7917 150.792 94.2292 149.583 92.8125 148.188C91.3958 146.771 90.1875 145.208 89.1875 143.5C88.1875 141.771 87.4062 139.917 86.8438 137.938C86.3021 135.958 86.0312 133.906 86.0312 131.781C86.0312 129.656 86.3021 127.615 86.8438 125.656C87.4062 123.698 88.1875 121.865 89.1875 120.156C90.1875 118.427 91.3958 116.865 92.8125 115.469C94.2292 114.052 95.7917 112.844 97.5 111.844C99.2083 110.844 101.042 110.073 103 109.531C104.979 108.969 107.031 108.688 109.156 108.688C111.927 108.688 114.594 109.167 117.156 110.125C119.719 111.062 122.042 112.417 124.125 114.188L119.438 122C118.083 120.625 116.521 119.552 114.75 118.781C112.979 117.99 111.115 117.594 109.156 117.594C107.198 117.594 105.354 117.969 103.625 118.719C101.917 119.469 100.417 120.49 99.125 121.781C97.8333 123.052 96.8125 124.552 96.0625 126.281C95.3125 127.99 94.9375 129.823 94.9375 131.781C94.9375 133.76 95.3125 135.615 96.0625 137.344C96.8125 139.073 97.8333 140.583 99.125 141.875C100.417 143.167 101.917 144.188 103.625 144.938C105.354 145.688 107.198 146.062 109.156 146.062C110.281 146.062 111.375 145.927 112.438 145.656C113.5 145.385 114.51 145.01 115.469 144.531V131.781H124.125V149.469ZM140 154H131.031V109.188H140V154ZM145.719 122.625C145.719 120.771 146.073 119.031 146.781 117.406C147.49 115.781 148.448 114.365 149.656 113.156C150.885 111.927 152.312 110.958 153.938 110.25C155.562 109.542 157.302 109.188 159.156 109.188H179.719V118.156H159.156C158.531 118.156 157.948 118.271 157.406 118.5C156.865 118.729 156.385 119.052 155.969 119.469C155.573 119.865 155.26 120.333 155.031 120.875C154.802 121.417 154.688 122 154.688 122.625C154.688 123.25 154.802 123.844 155.031 124.406C155.26 124.948 155.573 125.427 155.969 125.844C156.385 126.24 156.865 126.552 157.406 126.781C157.948 127.01 158.531 127.125 159.156 127.125H168.125C169.979 127.125 171.719 127.479 173.344 128.188C174.99 128.875 176.417 129.833 177.625 131.062C178.854 132.271 179.812 133.698 180.5 135.344C181.208 136.969 181.562 138.708 181.562 140.562C181.562 142.417 181.208 144.156 180.5 145.781C179.812 147.406 178.854 148.833 177.625 150.062C176.417 151.271 174.99 152.229 173.344 152.938C171.719 153.646 169.979 154 168.125 154H148.219V145.031H168.125C168.75 145.031 169.333 144.917 169.875 144.688C170.417 144.458 170.885 144.146 171.281 143.75C171.698 143.333 172.021 142.854 172.25 142.312C172.479 141.771 172.594 141.188 172.594 140.562C172.594 139.938 172.479 139.354 172.25 138.812C172.021 138.271 171.698 137.802 171.281 137.406C170.885 136.99 170.417 136.667 169.875 136.438C169.333 136.208 168.75 136.094 168.125 136.094H159.156C157.302 136.094 155.562 135.74 153.938 135.031C152.312 134.323 150.885 133.365 149.656 132.156C148.448 130.927 147.49 129.5 146.781 127.875C146.073 126.229 145.719 124.479 145.719 122.625ZM205.656 154H196.719V118.156H183.25V109.188H219.094V118.156H205.656V154ZM232.812 154H223.844V109.188H232.812V154ZM276.938 149.406C274.854 151.198 272.521 152.573 269.938 153.531C267.354 154.49 264.677 154.969 261.906 154.969C259.781 154.969 257.729 154.688 255.75 154.125C253.792 153.583 251.948 152.812 250.219 151.812C248.51 150.792 246.948 149.573 245.531 148.156C244.115 146.74 242.896 145.177 241.875 143.469C240.875 141.74 240.094 139.896 239.531 137.938C238.99 135.958 238.719 133.906 238.719 131.781C238.719 129.656 238.99 127.604 239.531 125.625C240.094 123.646 240.875 121.802 241.875 120.094C242.896 118.365 244.115 116.792 245.531 115.375C246.948 113.958 248.51 112.75 250.219 111.75C251.948 110.729 253.792 109.948 255.75 109.406C257.729 108.844 259.781 108.562 261.906 108.562C264.677 108.562 267.354 109.042 269.938 110C272.521 110.938 274.854 112.312 276.938 114.125L272.188 121.938C270.875 120.521 269.323 119.438 267.531 118.688C265.74 117.917 263.865 117.531 261.906 117.531C259.927 117.531 258.073 117.906 256.344 118.656C254.615 119.406 253.104 120.427 251.812 121.719C250.521 122.99 249.5 124.5 248.75 126.25C248 127.979 247.625 129.823 247.625 131.781C247.625 133.74 248 135.583 248.75 137.312C249.5 139.021 250.521 140.521 251.812 141.812C253.104 143.104 254.615 144.125 256.344 144.875C258.073 145.625 259.927 146 261.906 146C263.865 146 265.74 145.625 267.531 144.875C269.323 144.104 270.875 143.01 272.188 141.594L276.938 149.406ZM278.969 122.625C278.969 120.771 279.323 119.031 280.031 117.406C280.74 115.781 281.698 114.365 282.906 113.156C284.135 111.927 285.562 110.958 287.188 110.25C288.812 109.542 290.552 109.188 292.406 109.188H312.969V118.156H292.406C291.781 118.156 291.198 118.271 290.656 118.5C290.115 118.729 289.635 119.052 289.219 119.469C288.823 119.865 288.51 120.333 288.281 120.875C288.052 121.417 287.938 122 287.938 122.625C287.938 123.25 288.052 123.844 288.281 124.406C288.51 124.948 288.823 125.427 289.219 125.844C289.635 126.24 290.115 126.552 290.656 126.781C291.198 127.01 291.781 127.125 292.406 127.125H301.375C303.229 127.125 304.969 127.479 306.594 128.188C308.24 128.875 309.667 129.833 310.875 131.062C312.104 132.271 313.062 133.698 313.75 135.344C314.458 136.969 314.812 138.708 314.812 140.562C314.812 142.417 314.458 144.156 313.75 145.781C313.062 147.406 312.104 148.833 310.875 150.062C309.667 151.271 308.24 152.229 306.594 152.938C304.969 153.646 303.229 154 301.375 154H281.469V145.031H301.375C302 145.031 302.583 144.917 303.125 144.688C303.667 144.458 304.135 144.146 304.531 143.75C304.948 143.333 305.271 142.854 305.5 142.312C305.729 141.771 305.844 141.188 305.844 140.562C305.844 139.938 305.729 139.354 305.5 138.812C305.271 138.271 304.948 137.802 304.531 137.406C304.135 136.99 303.667 136.667 303.125 136.438C302.583 136.208 302 136.094 301.375 136.094H292.406C290.552 136.094 288.812 135.74 287.188 135.031C285.562 134.323 284.135 133.365 282.906 132.156C281.698 130.927 280.74 129.5 280.031 127.875C279.323 126.229 278.969 124.479 278.969 122.625Z" fill="#FFD336"/>
<defs>
<linearGradient id="paint0_linear" x1="236.047" y1="40.5005" x2="125.905" y2="40.5005" gradientUnits="userSpaceOnUse">
<stop offset="0.1241" stop-color="#FE0600"/>
<stop offset="0.8621" stop-color="#FFB904"/>
</linearGradient>
<linearGradient id="paint1_linear" x1="199.613" y1="46.9001" x2="291.517" y2="19.5734" gradientUnits="userSpaceOnUse">
<stop stop-color="#F2002C"/>
<stop offset="1" stop-color="#3F7AFF"/>
</linearGradient>
<linearGradient id="paint2_linear" x1="203.938" y1="61.4436" x2="295.842" y2="34.1169" gradientUnits="userSpaceOnUse">
<stop stop-color="#EE4A17"/>
<stop offset="1" stop-color="#D238A7"/>
<stop offset="1" stop-color="#FFD53F"/>
</linearGradient>
<linearGradient id="paint3_linear" x1="210.329" y1="82.9395" x2="302.234" y2="55.6127" gradientUnits="userSpaceOnUse">
<stop stop-color="#9700F2"/>
<stop offset="1" stop-color="#3F7AFF"/>
</linearGradient>
<linearGradient id="paint4_linear" x1="236.047" y1="72.5064" x2="125.905" y2="72.5064" gradientUnits="userSpaceOnUse">
<stop offset="0.1241" stop-color="#FE0600"/>
<stop offset="0.8621" stop-color="#FFB904"/>
</linearGradient>
<linearGradient id="paint5_linear" x1="198.105" y1="41.8281" x2="290.009" y2="14.5016" gradientUnits="userSpaceOnUse">
<stop stop-color="#F25700"/>
<stop offset="1" stop-color="#FFF73F"/>
</linearGradient>
<clipPath id="clip0">
<rect width="147" height="96.4444" fill="white" transform="translate(129)"/>
</clipPath>
</defs>
</svg>
